<?xml version="1.0" encoding="UTF-8" standalone="no"?>
<!-- Created with Inkscape (http://www.inkscape.org/) -->

<svg
   width="35.243507mm"
   height="35.243507mm"
   viewBox="0 0 35.243507 35.243507"
   version="1.1"
   id="svg1"
   xml:space="preserve"
   xmlns="http://www.w3.org/2000/svg"
   xmlns:svg="http://www.w3.org/2000/svg"><defs
     id="defs1" /><circle
     style="fill:#ffffff;fill-opacity:1;stroke-width:0.264583"
     id="path1"
     cx="17.621754"
     cy="17.621754"
     r="17.621754" /><g
     id="layer1"
     transform="translate(-72.755038,-204.45674)"><g
       id="g10"
       transform="matrix(1.0544553,0,0,1.0544553,-53.404946,-26.257461)"><path
         style="fill:#000000"
         d="m 125.53661,247.50544 -0.86407,-0.77174 -0.0768,-8.34033 -0.0768,-8.34033 0.78177,-0.87596 0.78178,-0.87595 3.90736,-0.13229 3.90735,-0.13229 1.07618,-2.48911 c 0.69125,-1.59881 1.26544,-2.56216 1.60534,-2.69338 0.29104,-0.11235 2.03402,-0.21265 3.87329,-0.22288 2.81781,-0.0157 3.43029,0.0543 3.89159,0.44443 0.30111,0.25466 1.15547,1.89177 1.89858,3.63802 0.74312,1.74625 1.42607,3.35096 1.51767,3.56603 0.0916,0.21506 -0.46639,-0.0736 -1.23999,-0.64147 -5.5299,-4.05932 -13.22178,-1.79399 -16.20153,4.77151 -0.85044,1.87384 -0.85477,6.27286 -0.008,8.13709 0.90367,1.98951 2.16737,3.58236 3.73178,4.70378 l 1.43214,1.0266 h -4.53682 -4.53681 z m 12.69171,0.23588 c -4.57,-1.15287 -7.64686,-5.42767 -7.25666,-10.08198 0.20184,-2.40749 1.20569,-4.39289 3.11479,-6.16038 4.69303,-4.34492 12.27571,-2.76266 14.96624,3.12296 0.62121,1.35892 0.74035,1.9762 0.74716,3.87123 0.007,2.01775 -0.0822,2.43796 -0.85177,4.00118 -1.57247,3.19413 -4.49981,5.18482 -7.92682,5.39049 -0.98815,0.0593 -2.24497,-0.005 -2.79294,-0.1435 z m 5.58155,-1.11311 c 1.95347,-0.72249 4.03875,-2.84055 4.80279,-4.87829 0.62781,-1.6744 0.75989,-4.31167 0.2937,-5.86432 -1.25312,-4.17353 -5.83241,-6.97318 -10.01247,-6.12133 -3.07341,0.62633 -5.32868,2.41281 -6.62756,5.24993 -1.78387,3.89649 -0.16196,8.87099 3.6138,11.08373 2.40365,1.40863 5.07233,1.58709 7.92974,0.53028 z m -5.86171,-1.11637 c -1.11736,-0.39847 -1.73637,-0.85296 -0.74687,-0.54837 1.10815,0.34111 3.67612,0.20348 5.11393,-0.27408 1.94988,-0.64765 4.16874,-2.89053 4.79124,-4.84312 0.2489,-0.7807 0.46661,-1.97132 0.48381,-2.64584 l 0.0313,-1.22638 0.25731,1.23149 c 0.70547,3.37639 -1.5151,7.06443 -5.00246,8.30834 -1.29139,0.46063 -3.63357,0.45966 -4.92824,-0.002 z m -9.62187,-19.09876 c -0.34648,-0.90292 0.2794,-1.28319 2.2456,-1.36438 1.64013,-0.0677 1.91013,-0.0121 2.15414,0.44386 0.57156,1.06795 0.12089,1.35336 -2.13698,1.35336 -1.69705,0 -2.12832,-0.0825 -2.26276,-0.43284 z"
         id="path9-9" /><path
         d="m 133.60221,243.21984 c -0.5125,-0.13509 -0.87177,-0.6694 -0.87177,-0.6694 0,-0.0677 0.48198,-1.8391 1.07108,-3.93645 1.45656,-5.18577 1.43878,-5.12101 1.40608,-5.12101 -0.0159,0 -0.19349,0.13076 -0.3946,0.29058 -0.59839,0.47554 -0.82334,0.3712 -0.82334,-0.38189 0,-0.3629 0.007,-0.36905 0.76061,-0.71374 0.46336,-0.21181 0.82631,-0.44795 0.92872,-0.60426 0.14753,-0.22515 0.21157,-0.24891 0.52283,-0.19394 0.1951,0.0345 0.76881,0.099 1.27492,0.14351 0.50611,0.0445 1.07839,0.14976 1.27174,0.23397 1.70973,0.74459 1.63175,2.69049 -0.18044,4.50268 l -0.71609,0.71609 0.22406,0.15617 c 1.09335,0.76203 1.47553,2.13242 0.92814,3.32809 -0.79447,1.73534 -3.33666,2.79402 -5.40194,2.2496 z m 2.46133,-0.85538 c 1.39923,-0.68458 2.30181,-2.42047 1.86002,-3.57728 -0.0878,-0.22995 -0.2879,-0.54094 -0.44462,-0.69109 l -0.28495,-0.273 -0.59148,0.25652 c -0.7041,0.30537 -1.09201,0.32442 -1.35009,0.0663 -0.10461,-0.10461 -0.21016,-0.15789 -0.23457,-0.11841 -0.0355,0.0575 -0.37453,1.55713 -0.9821,4.34462 -0.0609,0.2796 0.0751,0.32557 0.84615,0.28585 0.45737,-0.0235 0.80765,-0.11058 1.18164,-0.29355 z m 0.43099,-5.28755 h 0.57531 l 0.50989,-0.55696 c 1.24673,-1.36183 1.50898,-3.10916 0.55666,-3.70902 -0.26092,-0.16435 -0.42673,-0.1933 -0.89032,-0.15545 -0.31333,0.0256 -0.62395,0.10463 -0.69026,0.17563 -0.11812,0.12649 -0.52127,1.40327 -1.10892,3.51191 -0.16218,0.58194 -0.29487,1.0732 -0.29487,1.09169 0,0.0185 0.17262,-0.0545 0.38359,-0.1621 0.25743,-0.13133 0.57282,-0.1957 0.95892,-0.1957 z"
         style="fill:#000000;stroke-width:0.366097"
         id="path1-3-2" /><path
         d="m 139.45429,242.8834 -0.22136,-0.17925 0.21323,-0.29945 c 0.11727,-0.16469 0.27939,-0.4578 0.36026,-0.65136 0.19414,-0.46463 2.28406,-8.38133 2.24417,-8.501 -0.017,-0.051 -0.27504,0.13038 -0.57341,0.40308 -0.29837,0.27269 -0.58351,0.49581 -0.63363,0.49581 -0.0888,0 -0.24747,-0.2702 -0.35183,-0.59921 -0.19436,-0.61282 1.84691,-1.57951 3.57673,-1.69384 1.01865,-0.0673 1.44172,0.0367 1.94429,0.47795 0.49408,0.4338 0.73597,0.97717 0.78645,1.76667 0.13834,2.16357 -1.91361,4.40823 -4.32491,4.73107 l -0.76847,0.10289 -0.11268,0.58578 c -0.21076,1.09561 -0.59354,2.52184 -0.78364,2.91982 -0.28679,0.60041 -0.90852,0.80275 -1.3552,0.44104 z m 3.73541,-5.0026 c 0.82845,-0.39964 1.69924,-1.23859 2.04564,-1.97081 0.63883,-1.35037 0.50526,-2.74004 -0.31501,-3.2775 -0.48829,-0.31995 -2.26351,-0.13921 -1.98062,0.20165 0.0602,0.0725 -0.0411,0.66472 -0.29213,1.70692 -0.4249,1.76453 -0.76553,3.37917 -0.76553,3.62869 0,0.22596 0.44332,0.128 1.30765,-0.28895 z"
         style="fill:#000000;stroke-width:0.366097"
         id="path1-2-28" /></g></g></svg>
