<?xml version="1.0" encoding="UTF-8" standalone="no"?>
<!-- Created with Inkscape (http://www.inkscape.org/) -->

<svg
   width="135.17229mm"
   height="135.18993mm"
   viewBox="0 0 135.17229 135.18993"
   version="1.1"
   id="svg1"
   xml:space="preserve"
   xmlns="http://www.w3.org/2000/svg"
   xmlns:svg="http://www.w3.org/2000/svg"><defs
     id="defs1" /><g
     id="layer1"
     transform="translate(-33.674614,-140.32362)"><path
       style="fill:#6C5241"
       d="m 39.904042,275.23227 c -1.854852,-0.51753 -2.934518,-1.19979 -4.232926,-2.67486 -1.325236,-1.50555 -1.995142,-3.42013 -1.97715,-5.65067 0.02916,-3.61461 -1.604378,-1.77378 27.235446,-30.69166 14.295105,-14.33381 26.123175,-26.32152 26.284605,-26.63938 0.37767,-0.74368 0.37767,-2.5984 0,-3.34208 -0.16143,-0.31785 -11.9895,-12.30557 -26.284605,-26.63937 C 31.843526,150.42963 33.687828,152.52654 33.702419,148.638 c 0.0096,-2.55163 0.874927,-4.49014 2.761637,-6.18646 1.619088,-1.4557 3.485197,-2.13743 5.799708,-2.11876 3.614611,0.0292 1.773778,-1.60438 30.691665,27.23545 14.333798,14.29511 26.321523,26.12318 26.639383,26.2846 0.743668,0.37768 2.598398,0.37768 3.342078,0 0.31785,-0.16142 12.30557,-11.98949 26.63937,-26.2846 28.91789,-28.83983 27.07705,-27.20629 30.69167,-27.23545 2.58325,-0.0208 4.32517,0.6818 6.10658,2.46322 1.78141,1.78141 2.48405,3.52333 2.46321,6.10658 -0.0291,3.61461 1.60438,1.77378 -27.23544,30.69167 -14.29511,14.3338 -26.12318,26.32152 -26.2846,26.63937 -0.37768,0.74368 -0.37768,2.5984 0,3.34208 0.16142,0.31786 11.98949,12.30557 26.2846,26.63938 28.83982,28.91788 27.20629,27.07705 27.23544,30.69166 0.0208,2.58325 -0.6818,4.32517 -2.46321,6.10658 -1.78141,1.78142 -3.52333,2.48406 -6.10658,2.46322 -3.61462,-0.0292 -1.77378,1.60438 -30.69167,-27.23545 -14.3338,-14.2951 -26.32152,-26.12318 -26.63937,-26.2846 -0.74368,-0.37768 -2.59841,-0.37768 -3.342078,0 -0.31786,0.16142 -12.305585,11.9895 -26.639383,26.2846 -22.694398,22.63314 -26.236925,26.06406 -27.419603,26.55577 -1.852947,0.77037 -3.87183,0.92646 -5.631784,0.43541 z"
       id="path2" /></g></svg>
