<svg width="46" height="35" viewBox="0 0 46 35" fill="none" xmlns="http://www.w3.org/2000/svg">
<path d="M44.2236 11.8076C44.5664 11.5352 45.0762 11.79 45.0762 12.2207V30.1943C45.0762 32.5234 43.1865 34.4131 40.8574 34.4131H4.29492C1.96582 34.4131 0.0761719 32.5234 0.0761719 30.1943V12.2295C0.0761719 11.79 0.577148 11.5439 0.928711 11.8164C2.89746 13.3457 5.50781 15.2881 14.4727 21.8008C16.3271 23.1543 19.4561 26.002 22.5762 25.9844C25.7139 26.0107 28.9043 23.1016 30.6885 21.8008C39.6533 15.2881 42.2549 13.3369 44.2236 11.8076ZM22.5762 23.1631C24.6152 23.1982 27.5508 20.5967 29.0273 19.5244C40.6904 11.0605 41.5781 10.3223 44.2676 8.21289C44.7773 7.81738 45.0762 7.20215 45.0762 6.55176V4.88184C45.0762 2.55273 43.1865 0.663086 40.8574 0.663086H4.29492C1.96582 0.663086 0.0761719 2.55273 0.0761719 4.88184V6.55176C0.0761719 7.20215 0.375 7.80859 0.884766 8.21289C3.57422 10.3135 4.46192 11.0605 16.125 19.5244C17.6016 20.5967 20.5371 23.1982 22.5762 23.1631Z" fill="white"/>
</svg>
