<svg width="46" height="46" viewBox="0 0 46 46" fill="none" xmlns="http://www.w3.org/2000/svg">
<path d="M23.467 10.9837C17.0713 10.9837 11.9126 16.1424 11.9126 22.5381C11.9126 28.9337 17.0713 34.0925 23.467 34.0925C29.8626 34.0925 35.0214 28.9337 35.0214 22.5381C35.0214 16.1424 29.8626 10.9837 23.467 10.9837ZM23.467 30.05C19.3339 30.05 15.9551 26.6812 15.9551 22.5381C15.9551 18.395 19.3239 15.0262 23.467 15.0262C27.6101 15.0262 30.9788 18.395 30.9788 22.5381C30.9788 26.6812 27.6 30.05 23.467 30.05ZM38.189 10.5111C38.189 12.0094 36.9823 13.2061 35.494 13.2061C33.9957 13.2061 32.799 11.9994 32.799 10.5111C32.799 9.02277 34.0057 7.81604 35.494 7.81604C36.9823 7.81604 38.189 9.02277 38.189 10.5111ZM45.8417 13.2463C45.6707 9.63618 44.8461 6.43836 42.2014 3.80368C39.5667 1.16899 36.3689 0.344396 32.7588 0.163388C29.038 -0.0477894 17.8859 -0.0477894 14.1651 0.163388C10.5651 0.33434 7.36724 1.15894 4.7225 3.79362C2.07776 6.42831 1.26322 9.62613 1.08221 13.2362C0.871034 16.957 0.871034 28.1091 1.08221 31.8299C1.25316 35.44 2.07776 38.6378 4.7225 41.2725C7.36724 43.9072 10.555 44.7318 14.1651 44.9128C17.8859 45.124 29.038 45.124 32.7588 44.9128C36.3689 44.7418 39.5667 43.9172 42.2014 41.2725C44.8361 38.6378 45.6607 35.44 45.8417 31.8299C46.0529 28.1091 46.0529 16.967 45.8417 13.2463ZM41.0349 35.8221C40.2505 37.7931 38.7321 39.3116 36.751 40.106C33.7845 41.2826 26.7452 41.0111 23.467 41.0111C20.1887 41.0111 13.1394 41.2725 10.1829 40.106C8.21195 39.3216 6.69349 37.8032 5.89906 35.8221C4.7225 32.8556 4.99401 25.8164 4.99401 22.5381C4.99401 19.2598 4.73256 12.2105 5.89906 9.25405C6.68343 7.28307 8.20189 5.76461 10.1829 4.97018C13.1495 3.79362 20.1887 4.06513 23.467 4.06513C26.7452 4.06513 33.7945 3.80368 36.751 4.97018C38.722 5.75455 40.2405 7.27301 41.0349 9.25405C42.2114 12.2206 41.9399 19.2598 41.9399 22.5381C41.9399 25.8164 42.2114 32.8657 41.0349 35.8221Z" fill="white"/>
</svg>
