<?xml version="1.0" encoding="UTF-8" standalone="no"?>
<!-- Created with Inkscape (http://www.inkscape.org/) -->

<svg
   width="137.59547mm"
   height="37.047806mm"
   viewBox="0 0 137.59547 37.047806"
   version="1.1"
   id="svg1"
   xml:space="preserve"
   sodipodi:docname="logoMobile.svg"
   inkscape:version="1.4 (e7c3feb100, 2024-10-09)"
   xmlns:inkscape="http://www.inkscape.org/namespaces/inkscape"
   xmlns:sodipodi="http://sodipodi.sourceforge.net/DTD/sodipodi-0.dtd"
   xmlns="http://www.w3.org/2000/svg"
   xmlns:svg="http://www.w3.org/2000/svg"><sodipodi:namedview
     id="namedview1"
     pagecolor="#ffffff"
     bordercolor="#000000"
     borderopacity="0.25"
     inkscape:showpageshadow="2"
     inkscape:pageopacity="0.0"
     inkscape:pagecheckerboard="0"
     inkscape:deskcolor="#d1d1d1"
     inkscape:document-units="mm"
     inkscape:zoom="1.2026553"
     inkscape:cx="256.93147"
     inkscape:cy="106.01541"
     inkscape:window-width="1904"
     inkscape:window-height="996"
     inkscape:window-x="8"
     inkscape:window-y="39"
     inkscape:window-maximized="0"
     inkscape:current-layer="svg1" /><defs
     id="defs1" /><g
     id="layer1"
     transform="translate(-274.96422,-252.81466)"
     style="fill:#51130e;fill-opacity:1"><g
       id="g33"
       transform="matrix(0.34084035,0,0,0.34084035,263.97387,246.79426)"
       style="fill:#51130e;fill-opacity:1"><path
         style="fill:#51130e;fill-opacity:1"
         d="m 136.93409,126.20271 c 0.1819,-0.0734 0.47956,-0.0734 0.66146,0 0.1819,0.0734 0.0331,0.13345 -0.33073,0.13345 -0.3638,0 -0.51263,-0.0601 -0.33073,-0.13345 z m 20.91862,-0.006 c 0.191,-0.0764 0.4192,-0.067 0.50712,0.0209 0.0879,0.0879 -0.0683,0.15046 -0.34726,0.13897 -0.30823,-0.0127 -0.37092,-0.0754 -0.15986,-0.15986 z m -94.86966,-0.53793 c 0.400182,-0.0606 1.055026,-0.0606 1.455208,0 0.400182,0.0606 0.07276,0.11022 -0.727604,0.11022 -0.800365,0 -1.127787,-0.0496 -0.727604,-0.11022 z m -19.443791,-0.2622 c 0.329118,-0.0633 0.805368,-0.0609 1.058333,0.005 0.252965,0.0662 -0.01631,0.118 -0.598397,0.11506 -0.582083,-0.003 -0.789055,-0.0571 -0.459936,-0.1204 z m 35.852993,-0.78998 c 0.257431,-0.0671 0.614619,-0.0627 0.79375,0.01 0.179132,0.0725 -0.03149,0.12736 -0.468056,0.12197 -0.436562,-0.005 -0.583125,-0.0647 -0.325694,-0.13178 z m 53.837678,0.008 c 0.1819,-0.0734 0.47955,-0.0734 0.66146,0 0.1819,0.0734 0.0331,0.13345 -0.33073,0.13345 -0.36381,0 -0.51263,-0.0601 -0.33073,-0.13345 z m -69.850005,-0.28076 c 0.472942,-0.0587 1.246849,-0.0587 1.719791,0 0.472943,0.0587 0.08599,0.10672 -0.859895,0.10672 -0.945886,0 -1.332839,-0.048 -0.859896,-0.10672 z m 64.839455,0.0107 c 0.191,-0.0764 0.4192,-0.067 0.50712,0.0209 0.0879,0.0879 -0.0683,0.15045 -0.34727,0.13896 -0.30822,-0.0127 -0.37092,-0.0754 -0.15985,-0.15985 z m -78.597789,-0.25907 c 0.181901,-0.0734 0.479557,-0.0734 0.661458,0 0.181901,0.0734 0.03307,0.13345 -0.330729,0.13345 -0.363802,0 -0.51263,-0.06 -0.330729,-0.13345 z m 126.293289,-9.7687 c 0.0127,-0.30822 0.0754,-0.37091 0.15985,-0.15985 0.0764,0.191 0.067,0.4192 -0.0209,0.50712 -0.0879,0.0879 -0.15045,-0.0683 -0.13896,-0.34727 z m -0.79375,-1.85208 c 0.0127,-0.30822 0.0754,-0.37092 0.15985,-0.15985 0.0764,0.19099 0.067,0.4192 -0.0209,0.50712 -0.0879,0.0879 -0.15045,-0.0683 -0.13896,-0.34727 z m 0.28547,-6.46024 c 0,-0.3638 0.06,-0.51263 0.13345,-0.33073 0.0734,0.1819 0.0734,0.47956 0,0.66146 -0.0734,0.1819 -0.13345,0.0331 -0.13345,-0.33073 z m 1.03745,-0.41893 c 0.0127,-0.30822 0.0754,-0.37091 0.15985,-0.15985 0.0764,0.191 0.067,0.4192 -0.0209,0.50712 -0.0879,0.0879 -0.15045,-0.0683 -0.13896,-0.34727 z M 32.246124,104.79234 c 0.0127,-0.30822 0.07539,-0.37091 0.159853,-0.15985 0.07643,0.191 0.06703,0.4192 -0.02089,0.50712 -0.08792,0.0879 -0.150453,-0.0684 -0.138965,-0.34727 z m 1.353609,-1.30086 c 0.0054,-0.43657 0.06469,-0.58313 0.131774,-0.3257 0.06708,0.25743 0.06267,0.61462 -0.0098,0.79375 -0.07248,0.17913 -0.127362,-0.0315 -0.12197,-0.46805 z m 143.108897,-3.46164 c 0.0127,-0.30822 0.0754,-0.370915 0.15985,-0.159848 0.0764,0.190998 0.067,0.419198 -0.0209,0.507118 -0.0879,0.0879 -0.15045,-0.0683 -0.13896,-0.34727 z m -1.02764,-2.62378 c 0.005,-0.436563 0.0647,-0.583125 0.13177,-0.325694 0.0671,0.257431 0.0627,0.614618 -0.01,0.79375 -0.0725,0.179131 -0.12736,-0.03149 -0.12197,-0.468056 z m 1.32291,-4.497917 c 0.005,-0.436563 0.0647,-0.583125 0.13178,-0.325694 0.0671,0.257431 0.0627,0.614619 -0.01,0.79375 -0.0725,0.179132 -0.12736,-0.03149 -0.12197,-0.468056 z m -1.03423,-7.408334 c 0.002,-0.727604 0.0534,-0.993857 0.11418,-0.591674 0.0608,0.402183 0.0592,0.997495 -0.004,1.322916 -0.0628,0.325421 -0.11256,-0.0036 -0.11057,-0.731242 z M 32.297299,84.309184 c 0,-0.654844 0.0516,-0.922734 0.114662,-0.595312 0.06307,0.327422 0.06307,0.863203 0,1.190625 -0.06306,0.327422 -0.114662,0.05953 -0.114662,-0.595313 z m 1.271742,-11.002257 c 0.0127,-0.308224 0.07539,-0.370919 0.159853,-0.159852 0.07643,0.190996 0.06703,0.419199 -0.02089,0.507118 -0.08792,0.08792 -0.150452,-0.06835 -0.138964,-0.347266 z m -1.037445,-1.168576 c 0,-0.363802 0.06005,-0.512631 0.133452,-0.33073 0.0734,0.181901 0.0734,0.479558 0,0.661459 -0.0734,0.181901 -0.133452,0.03307 -0.133452,-0.330729 z m 1.302028,-4.123091 c 0.0127,-0.308224 0.07539,-0.370919 0.159853,-0.159852 0.07643,0.190996 0.06703,0.419199 -0.02089,0.507118 -0.08792,0.08792 -0.150453,-0.06835 -0.138965,-0.347266 z m -1.058333,-1.852083 c 0.0127,-0.308225 0.07539,-0.370919 0.159853,-0.159853 0.07643,0.190997 0.06703,0.4192 -0.02089,0.507118 -0.08792,0.08792 -0.150452,-0.06835 -0.138964,-0.347265 z M 163.47946,46.054843 c 0.0127,-0.308224 0.0754,-0.370919 0.15985,-0.159852 0.0764,0.190996 0.067,0.419199 -0.0209,0.507118 -0.0879,0.08792 -0.15046,-0.06835 -0.13897,-0.347266 z m -42.66841,-1.349317 c 0.19099,-0.07643 0.4192,-0.06703 0.50711,0.02089 0.0879,0.08792 -0.0684,0.150453 -0.34726,0.138964 -0.30823,-0.0127 -0.37092,-0.07539 -0.15985,-0.159852 z M 58.355926,41.259554 c 0.329119,-0.06329 0.805369,-0.06088 1.058333,0.0053 0.252965,0.06622 -0.01631,0.118003 -0.598397,0.115067 -0.582083,-0.0029 -0.789054,-0.05712 -0.459936,-0.120406 z M 152.74295,40.38835 c 0.26339,-0.291042 0.53842,-0.529167 0.61118,-0.529167 0.0728,0 -0.0832,0.238125 -0.3466,0.529167 -0.26339,0.291042 -0.53842,0.529167 -0.61118,0.529167 -0.0728,0 0.0832,-0.238125 0.3466,-0.529167 z M 68.671592,39.948538 c 0.181901,-0.0734 0.479557,-0.0734 0.661458,0 0.181901,0.0734 0.03307,0.133452 -0.330729,0.133452 -0.363802,0 -0.51263,-0.06005 -0.330729,-0.133452 z m 1.339453,-0.0055 c 0.190996,-0.07643 0.419199,-0.06703 0.507118,0.02089 0.08792,0.08792 -0.06835,0.150453 -0.347266,0.138964 -0.308224,-0.01269 -0.370919,-0.07539 -0.159852,-0.159852 z m -12.843793,-0.53178 c 0.257431,-0.06708 0.614618,-0.06267 0.79375,0.0098 0.179131,0.07247 -0.03149,0.127362 -0.468057,0.12197 -0.436562,-0.0054 -0.583124,-0.06469 -0.325693,-0.131774 z m 1.041722,-8.479251 c 0.975899,-0.05076 2.642774,-0.0511 3.704167,-7.51e-4 1.061392,0.05035 0.26293,0.09188 -1.774362,0.0923 -2.037292,4.12e-4 -2.905704,-0.04078 -1.929805,-0.09154 z m 36.722514,-3.34354 c 0,-0.05494 0.20836,-0.263302 0.463021,-0.463021 0.419644,-0.329108 0.429002,-0.319749 0.0999,0.0999 -0.345644,0.440729 -0.562916,0.580887 -0.562916,0.363126 z m 26.144142,-8.547513 c 0.191,-0.07643 0.4192,-0.06703 0.50712,0.02089 0.0879,0.08792 -0.0684,0.150453 -0.34727,0.138965 -0.30822,-0.0127 -0.37092,-0.07539 -0.15985,-0.159853 z m -5.84327,-1.333134 c 0.4697,-0.05845 1.30313,-0.05941 1.85208,-0.0021 0.54895,0.05728 0.16465,0.105098 -0.85399,0.106272 -1.01865,0.0012 -1.46779,-0.04569 -0.99809,-0.104138 z"
         id="path29" /><path
         style="fill:#51130e;fill-opacity:1"
         d="m 156.77784,126.20271 c 0.18191,-0.0734 0.47956,-0.0734 0.66146,0 0.1819,0.0734 0.0331,0.13345 -0.33073,0.13345 -0.3638,0 -0.51263,-0.0601 -0.33073,-0.13345 z m -91.148957,-0.54345 c 0.400182,-0.0606 1.055026,-0.0606 1.455209,0 0.400182,0.0606 0.07276,0.11022 -0.727605,0.11022 -0.800364,0 -1.127786,-0.0496 -0.727604,-0.11022 z m 19.711459,0.0143 c 0.181901,-0.0734 0.479557,-0.0734 0.661458,0 0.181902,0.0734 0.03307,0.13345 -0.330729,0.13345 -0.363802,0 -0.51263,-0.0601 -0.330729,-0.13345 z m -39.816155,-0.27921 c 0.402183,-0.0608 0.997496,-0.0592 1.322917,0.004 0.325421,0.0628 -0.0036,0.11256 -0.731242,0.11057 -0.727605,-0.002 -0.993858,-0.0534 -0.591675,-0.11418 z m 99.744283,-0.53656 c 1.41883,-0.0476 3.74055,-0.0476 5.15937,0 1.41883,0.0476 0.25797,0.0865 -2.57968,0.0865 -2.83766,0 -3.99852,-0.0389 -2.57969,-0.0865 z m -67.071878,-0.24256 c 0.181901,-0.0734 0.479557,-0.0734 0.661458,0 0.181901,0.0734 0.03307,0.13345 -0.330729,0.13345 -0.363802,0 -0.51263,-0.0601 -0.330729,-0.13345 z m 54.256118,-0.006 c 0.191,-0.0764 0.4192,-0.067 0.50712,0.0209 0.0879,0.0879 -0.0684,0.15046 -0.34726,0.13897 -0.30823,-0.0127 -0.37092,-0.0754 -0.15986,-0.15986 z m -71.582689,-0.2737 c 0.402183,-0.0608 0.997496,-0.0592 1.322917,0.004 0.325421,0.0628 -0.0036,0.11256 -0.731242,0.11058 -0.727605,-0.002 -0.993858,-0.0534 -0.591675,-0.11419 z m 31.381885,-11.38566 c -0.329108,-0.41964 -0.319749,-0.429 0.09989,-0.0999 0.254661,0.19972 0.463021,0.40807 0.463021,0.46302 0,0.21776 -0.217272,0.0776 -0.562916,-0.36313 z M 33.833624,110.8773 c 0.0127,-0.30822 0.07539,-0.37092 0.159853,-0.15985 0.07643,0.19099 0.06703,0.4192 -0.02089,0.50712 -0.08792,0.0879 -0.150453,-0.0684 -0.138965,-0.34727 z m 53.920365,-2.42535 c -0.329107,-0.41964 -0.319749,-0.429 0.09989,-0.0999 0.254661,0.19972 0.463021,0.40808 0.463021,0.46302 0,0.21776 -0.217272,0.0776 -0.562916,-0.36313 z m 87.631721,-1.5434 c 0.0127,-0.30822 0.0754,-0.37092 0.15985,-0.15985 0.0764,0.19099 0.067,0.4192 -0.0209,0.50712 -0.0879,0.0879 -0.15046,-0.0684 -0.13897,-0.34727 z M 33.589929,104.6821 c 0,-0.3638 0.06005,-0.51263 0.133452,-0.33073 0.0734,0.1819 0.0734,0.47956 0,0.66146 -0.0734,0.1819 -0.133452,0.0331 -0.133452,-0.33073 z m -1.313113,-0.92604 c 0.0054,-0.43656 0.06469,-0.58312 0.131774,-0.32569 0.06708,0.25743 0.06267,0.61461 -0.0098,0.79375 -0.07248,0.17913 -0.127362,-0.0315 -0.12197,-0.46806 z M 176.70863,99.236094 c 0.0127,-0.308224 0.0754,-0.370919 0.15985,-0.159852 0.0764,0.190996 0.067,0.419199 -0.0209,0.507118 -0.0879,0.08792 -0.15045,-0.06835 -0.13896,-0.347266 z m -1.03745,-0.639409 c 0,-0.363803 0.0601,-0.512631 0.13346,-0.33073 0.0734,0.181901 0.0734,0.479558 0,0.661459 -0.0734,0.181901 -0.13346,0.03307 -0.13346,-0.330729 z m 1.33272,-7.011459 c 0.005,-0.436562 0.0647,-0.583125 0.13178,-0.325694 0.0671,0.257431 0.0627,0.614619 -0.01,0.79375 -0.0725,0.179132 -0.12736,-0.03149 -0.12197,-0.468056 z m -1.04853,-4.101042 c 0,-0.509323 0.0545,-0.717682 0.121,-0.463021 0.0666,0.254662 0.0666,0.671381 0,0.926042 -0.0666,0.254662 -0.121,0.0463 -0.121,-0.463021 z M 32.297299,86.425851 c 0,-0.654844 0.0516,-0.922734 0.114662,-0.595313 0.06307,0.327422 0.06307,0.863204 0,1.190625 -0.06306,0.327422 -0.114662,0.05953 -0.114662,-0.595312 z M 155.27738,81.244427 c 0.0127,-0.308224 0.0754,-0.370919 0.15985,-0.159852 0.0764,0.190996 0.067,0.419199 -0.0209,0.507118 -0.0879,0.08792 -0.15045,-0.06835 -0.13896,-0.347266 z M 32.531596,73.196684 c 0,-0.363802 0.06005,-0.51263 0.133452,-0.330729 0.0734,0.181901 0.0734,0.479557 0,0.661458 -0.0734,0.181901 -0.133452,0.03307 -0.133452,-0.330729 z m 1.037445,-0.683507 c 0.0127,-0.308224 0.07539,-0.370919 0.159853,-0.159852 0.07643,0.190996 0.06703,0.419199 -0.02089,0.507118 -0.08792,0.08792 -0.150452,-0.06835 -0.138964,-0.347266 z M 176.9941,71.873767 c 0,-0.363802 0.06,-0.51263 0.13345,-0.330729 0.0734,0.181901 0.0734,0.479557 0,0.661458 -0.0734,0.181901 -0.13345,0.03307 -0.13345,-0.330729 z m -1.07922,-0.683507 c 0.0127,-0.308224 0.0754,-0.370919 0.15985,-0.159852 0.0764,0.190996 0.067,0.419199 -0.0209,0.507118 -0.0879,0.08792 -0.15045,-0.06835 -0.13896,-0.347266 z M 157.85271,51.055526 c 0.191,-0.07643 0.4192,-0.06703 0.50712,0.02089 0.0879,0.08792 -0.0683,0.150453 -0.34726,0.138965 -0.30823,-0.0127 -0.37092,-0.07539 -0.15986,-0.159853 z m -4.60573,-2.002072 -0.50403,-0.595312 0.59531,0.504028 c 0.32742,0.277215 0.59531,0.545106 0.59531,0.595312 0,0.211734 -0.21293,0.05542 -0.68659,-0.504028 z m 16.52785,-5.953125 c -0.32911,-0.419644 -0.31975,-0.429002 0.0999,-0.0999 0.25466,0.19972 0.46302,0.408079 0.46302,0.463021 0,0.217761 -0.21727,0.0776 -0.56291,-0.363126 z m -8.97633,-2.116667 -0.9118,-0.992187 0.99219,0.911798 c 0.9235,0.848682 1.11384,1.072577 0.91179,1.072577 -0.0442,0 -0.49069,-0.446485 -0.99218,-0.992188 z M 49.373544,41.530526 c 0.190996,-0.07643 0.419199,-0.06703 0.507118,0.02089 0.08792,0.08792 -0.06835,0.150453 -0.347265,0.138964 -0.308225,-0.0127 -0.37092,-0.07539 -0.159853,-0.159852 z m 7.130299,-0.270972 c 0.329118,-0.06329 0.805368,-0.06088 1.058333,0.0053 0.252965,0.06622 -0.01631,0.118003 -0.598397,0.115067 -0.582084,-0.0029 -0.789055,-0.05712 -0.459936,-0.120406 z m 11.919702,-0.258195 c 0.190996,-0.07643 0.419199,-0.06703 0.507118,0.02089 0.08792,0.08792 -0.06835,0.150453 -0.347266,0.138965 -0.308224,-0.0127 -0.370919,-0.07539 -0.159852,-0.159853 z m 4.497917,-0.264583 c 0.190996,-0.07643 0.419199,-0.06703 0.507118,0.02089 0.08792,0.08792 -0.06835,0.150453 -0.347266,0.138964 -0.308225,-0.0127 -0.370919,-0.07539 -0.159852,-0.159852 z m -2.116667,-0.79375 c 0.190996,-0.07643 0.419199,-0.06703 0.507118,0.02089 0.08792,0.08792 -0.06835,0.150453 -0.347266,0.138964 -0.308224,-0.01269 -0.370919,-0.07539 -0.159852,-0.159852 z M 60.221461,39.413859 c 0.190996,-0.07643 0.419199,-0.06703 0.507118,0.02089 0.08792,0.08792 -0.06835,0.150453 -0.347265,0.138965 -0.308225,-0.0127 -0.37092,-0.07539 -0.159853,-0.159853 z M 46.214404,37.014912 c -0.329107,-0.419644 -0.319749,-0.429002 0.09989,-0.0999 0.254662,0.19972 0.463021,0.408079 0.463021,0.463021 0,0.217761 -0.217272,0.0776 -0.562916,-0.363126 z m 25.678308,-3.704166 -0.641433,-0.727605 0.727604,0.641433 c 0.680056,0.599516 0.848939,0.813776 0.641433,0.813776 -0.04739,0 -0.374816,-0.327422 -0.727604,-0.727604 z m 71.048208,-1.719792 -1.04589,-1.124479 1.12448,1.045884 c 0.61846,0.575236 1.12448,1.081252 1.12448,1.124479 0,0.200178 -0.23041,-1.3e-4 -1.20307,-1.045884 z m -6.5036,-7.805209 c -0.3291,-0.419644 -0.31975,-0.429002 0.0999,-0.0999 0.44073,0.345644 0.58089,0.562916 0.36312,0.562916 -0.0549,0 -0.2633,-0.208359 -0.46302,-0.463021 z m 0.54289,-0.79375 -0.64143,-0.727604 0.72761,0.641433 c 0.40018,0.352788 0.7276,0.68021 0.7276,0.727604 0,0.207506 -0.21426,0.03862 -0.81378,-0.641433 z m -22.27702,-4.225854 c 0.4697,-0.05845 1.30314,-0.05941 1.85209,-0.0021 0.54894,0.05728 0.16465,0.105098 -0.854,0.106272 -1.01865,0.0012 -1.46779,-0.04569 -0.99809,-0.104138 z"
         id="path30" /><path
         style="fill:#51130e;fill-opacity:1"
         d="m 138.65892,126.19458 c 0.25743,-0.0671 0.61462,-0.0627 0.79375,0.01 0.17913,0.0725 -0.0315,0.12736 -0.46806,0.12197 -0.43656,-0.005 -0.58312,-0.0647 -0.32569,-0.13178 z m 17.34171,0.003 c 0.191,-0.0764 0.4192,-0.067 0.50712,0.0209 0.0879,0.0879 -0.0683,0.15046 -0.34727,0.13897 -0.30822,-0.0127 -0.37092,-0.0754 -0.15985,-0.15986 z M 68.401107,125.6582 c 0.469697,-0.0584 1.303134,-0.0594 1.852083,-0.002 0.548949,0.0573 0.164652,0.10509 -0.853994,0.10627 -1.018646,0.001 -1.467786,-0.0457 -0.998089,-0.10414 z m 15.753646,0.008 c 0.257431,-0.0671 0.614618,-0.0627 0.79375,0.01 0.179131,0.0725 -0.03149,0.12736 -0.468057,0.12197 -0.436562,-0.005 -0.583124,-0.0647 -0.325693,-0.13178 z m -36.252954,-0.27073 c 0.400183,-0.0606 1.055026,-0.0606 1.455209,0 0.400182,0.0606 0.07276,0.11022 -0.727605,0.11022 -0.800364,0 -1.127786,-0.0496 -0.727604,-0.11022 z m 36.925913,-0.5204 c 0.190996,-0.0764 0.419199,-0.067 0.507118,0.0209 0.08792,0.0879 -0.06835,0.15045 -0.347266,0.13896 -0.308224,-0.0127 -0.370919,-0.0754 -0.159852,-0.15985 z m 55.942838,-0.009 c 0.40018,-0.0606 1.05503,-0.0606 1.45521,0 0.40018,0.0606 0.0728,0.11022 -0.7276,0.11022 -0.80037,0 -1.12779,-0.0496 -0.72761,-0.11022 z m 12.7,0 c 0.40018,-0.0606 1.05503,-0.0606 1.45521,0 0.40018,0.0606 0.0728,0.11022 -0.7276,0.11022 -0.80037,0 -1.12779,-0.0496 -0.72761,-0.11022 z m -76.729166,-0.25746 c 0.254661,-0.0666 0.67138,-0.0666 0.926041,0 0.254662,0.0665 0.0463,0.121 -0.463021,0.121 -0.509323,0 -0.717682,-0.0545 -0.46302,-0.121 z m 54.917576,0.002 c 0.191,-0.0764 0.4192,-0.067 0.50712,0.0209 0.0879,0.0879 -0.0683,0.15046 -0.34726,0.13897 -0.30823,-0.0127 -0.37092,-0.0754 -0.15986,-0.15986 z m -73.43841,-0.27335 c 0.400182,-0.0606 1.055026,-0.0606 1.455208,0 0.400182,0.0606 0.07276,0.11023 -0.727604,0.11023 -0.800365,0 -1.127787,-0.0496 -0.727604,-0.11023 z m -9.905339,-0.25581 c 0.190996,-0.0764 0.419199,-0.067 0.507118,0.0209 0.08792,0.0879 -0.06835,0.15045 -0.347266,0.13896 -0.308224,-0.0127 -0.370919,-0.0754 -0.159852,-0.15985 z m -11.361224,-3.45728 c -0.329107,-0.41965 -0.319749,-0.429 0.0999,-0.0999 0.254662,0.19972 0.463021,0.40808 0.463021,0.46302 0,0.21776 -0.217272,0.0776 -0.562916,-0.36312 z M 175.12113,113.7891 c 0.0127,-0.30823 0.0754,-0.37092 0.15985,-0.15985 0.0764,0.19099 0.067,0.41919 -0.0209,0.50711 -0.0879,0.0879 -0.15045,-0.0684 -0.13896,-0.34726 z m -34.41672,-1.00389 c 0,-0.0549 0.20836,-0.2633 0.46302,-0.46302 0.41964,-0.32911 0.429,-0.31975 0.0999,0.0999 -0.34564,0.44073 -0.56291,0.58089 -0.56291,0.36313 z m 2.91041,-2.91042 c 0,-0.0549 0.20836,-0.2633 0.46302,-0.46302 0.41965,-0.3291 0.42901,-0.31975 0.0999,0.0999 -0.34564,0.44073 -0.56292,0.58088 -0.56292,0.36312 z m 32.56464,-0.58361 c 0.0127,-0.30822 0.0754,-0.37092 0.15985,-0.15985 0.0764,0.19099 0.067,0.4192 -0.0209,0.50712 -0.0879,0.0879 -0.15046,-0.0683 -0.13897,-0.34727 z m -0.77286,-1.43316 c 0,-0.3638 0.06,-0.51263 0.13345,-0.33073 0.0734,0.1819 0.0734,0.47956 0,0.66146 -0.0734,0.1819 -0.13345,0.0331 -0.13345,-0.33073 z M 33.589929,105.74043 c 0,-0.3638 0.06005,-0.51263 0.133452,-0.33072 0.0734,0.1819 0.0734,0.47955 0,0.66145 -0.0734,0.1819 -0.133452,0.0331 -0.133452,-0.33073 z m 142.854121,-1.47725 c 0.0127,-0.30823 0.0754,-0.37092 0.15985,-0.15985 0.0764,0.19099 0.067,0.41919 -0.0209,0.50711 -0.0879,0.0879 -0.15045,-0.0683 -0.13896,-0.34726 z M 32.28662,102.30085 c 0,-0.50932 0.05445,-0.71768 0.121,-0.46302 0.06655,0.25466 0.06655,0.67138 0,0.92604 -0.06655,0.25466 -0.121,0.0463 -0.121,-0.46302 z m 143.39437,-2.51354 c 0.005,-0.436563 0.0647,-0.583125 0.13177,-0.325694 0.0671,0.257431 0.0627,0.614614 -0.01,0.793754 -0.0725,0.17913 -0.12736,-0.0315 -0.12197,-0.46806 z m 1.04853,-1.455209 c 0,-0.363802 0.06,-0.51263 0.13345,-0.330729 0.0734,0.181901 0.0734,0.479557 0,0.661458 -0.0734,0.181901 -0.13345,0.03307 -0.13345,-0.330729 z M 33.394744,86.293559 c -2.34e-4,-2.910416 0.03842,-4.13714 0.0859,-2.726053 0.04748,1.411087 0.04767,3.792337 4.26e-4,5.291667 -0.04725,1.499329 -0.0861,0.344803 -0.08633,-2.565614 z m 143.609156,3.96875 c 0.005,-0.436562 0.0647,-0.583124 0.13178,-0.325693 0.0671,0.257431 0.0627,0.614618 -0.01,0.79375 -0.0725,0.179131 -0.12736,-0.03149 -0.12197,-0.468057 z M 32.307222,88.939393 c 0.0015,-0.873125 0.05088,-1.198415 0.109766,-0.722866 0.05889,0.475549 0.05767,1.189924 -0.0027,1.5875 -0.06037,0.397576 -0.108551,0.0085 -0.107066,-0.864634 z m 143.653488,0.264583 c 0.003,-0.582083 0.0571,-0.789055 0.12041,-0.459936 0.0633,0.329119 0.0609,0.805369 -0.005,1.058333 -0.0662,0.252965 -0.118,-0.01631 -0.11507,-0.598397 z m -95.763903,-3.96875 c 0.0015,-0.873125 0.05088,-1.198415 0.109766,-0.722866 0.05889,0.475549 0.05767,1.189924 -0.0027,1.5875 -0.06037,0.397576 -0.108551,0.0085 -0.107066,-0.864634 z m 75.138973,-2.248958 c 0,-0.800365 0.0496,-1.127787 0.11022,-0.727605 0.0606,0.400183 0.0606,1.055026 0,1.455209 -0.0606,0.400182 -0.11022,0.07276 -0.11022,-0.727604 z M 32.5414,74.387309 c 0.0054,-0.436563 0.06469,-0.583125 0.131773,-0.325694 0.06708,0.257431 0.06267,0.614619 -0.0098,0.79375 -0.07248,0.179132 -0.127362,-0.03149 -0.12197,-0.468056 z M 176.97321,72.77776 c 0.0127,-0.308224 0.0754,-0.370919 0.15985,-0.159852 0.0764,0.190996 0.067,0.419199 -0.0209,0.507118 -0.0879,0.08792 -0.15046,-0.06835 -0.13897,-0.347266 z M 33.589929,71.609184 c 0,-0.363802 0.06005,-0.51263 0.133452,-0.330729 0.0734,0.181901 0.0734,0.479557 0,0.661458 -0.0734,0.181901 -0.133452,0.03307 -0.133452,-0.330729 z m -0.814638,-4.12309 c 0.0127,-0.308225 0.07539,-0.37092 0.159853,-0.159853 0.07643,0.190996 0.06703,0.419199 -0.02089,0.507118 -0.08792,0.08792 -0.150452,-0.06835 -0.138964,-0.347265 z m 59.378072,-11.75191 c 0.263389,-0.291042 0.538421,-0.529167 0.611181,-0.529167 0.07276,0 -0.08321,0.238125 -0.346597,0.529167 -0.26339,0.291041 -0.538421,0.529166 -0.611181,0.529166 -0.07276,0 0.08321,-0.238125 0.346597,-0.529166 z M 55.050585,41.263329 c 0.257431,-0.06708 0.614619,-0.06267 0.79375,0.0098 0.179132,0.07248 -0.03149,0.127362 -0.468056,0.12197 -0.436563,-0.0054 -0.583125,-0.06469 -0.325694,-0.131774 z m 12.57921,-0.26197 c 0.190996,-0.07643 0.419199,-0.06703 0.507118,0.02089 0.08792,0.08792 -0.06835,0.150453 -0.347266,0.138965 -0.308224,-0.0127 -0.370919,-0.07539 -0.159852,-0.159853 z m -10.59987,-9.001818 c 0.327421,-0.06306 0.863203,-0.06306 1.190625,0 0.327421,0.06306 0.05953,0.114662 -0.595313,0.114662 -0.654844,0 -0.922734,-0.0516 -0.595312,-0.114662 z M 113.40271,18.776359 c 0.191,-0.07643 0.4192,-0.06703 0.50712,0.02089 0.0879,0.08792 -0.0683,0.150453 -0.34726,0.138964 -0.30823,-0.0127 -0.37092,-0.07539 -0.15986,-0.159852 z m 4.23334,0 c 0.19099,-0.07643 0.4192,-0.06703 0.50711,0.02089 0.0879,0.08792 -0.0683,0.150453 -0.34726,0.138964 -0.30823,-0.0127 -0.37092,-0.07539 -0.15985,-0.159852 z m 4.49791,-0.79375 c 0.191,-0.07643 0.4192,-0.06703 0.50712,0.02089 0.0879,0.08792 -0.0683,0.150453 -0.34726,0.138964 -0.30823,-0.0127 -0.37092,-0.07539 -0.15986,-0.159852 z"
         id="path31" /><path
         style="fill:#51130e;fill-opacity:1"
         d="m 139.98184,126.19458 c 0.25743,-0.0671 0.61462,-0.0627 0.79375,0.01 0.17913,0.0725 -0.0315,0.12736 -0.46806,0.12197 -0.43656,-0.005 -0.58312,-0.0647 -0.32569,-0.13178 z m 14.94392,0.008 c 0.1819,-0.0734 0.47956,-0.0734 0.66146,0 0.1819,0.0734 0.0331,0.13345 -0.33073,0.13345 -0.3638,0 -0.51263,-0.0601 -0.33073,-0.13345 z m -21.41471,-0.2701 c 0.19099,-0.0764 0.4192,-0.067 0.50711,0.0209 0.0879,0.0879 -0.0683,0.15045 -0.34726,0.13896 -0.30823,-0.0127 -0.37092,-0.0754 -0.15985,-0.15985 z M 72.384628,125.6534 c 0.768862,-0.0536 1.959487,-0.053 2.645833,10e-4 0.686346,0.0543 0.05728,0.0982 -1.397932,0.0975 -1.455208,-6.8e-4 -2.016764,-0.0451 -1.247901,-0.0987 z m 9.256286,0.004 c 0.475549,-0.0589 1.189924,-0.0577 1.5875,0.003 0.397576,0.0604 0.0085,0.10855 -0.864634,0.10706 -0.873126,-0.001 -1.198415,-0.0509 -0.722866,-0.10976 z m -31.093281,-0.26234 c 0.400182,-0.0606 1.055026,-0.0606 1.455208,0 0.400182,0.0606 0.07276,0.11022 -0.727604,0.11022 -0.800365,0 -1.127787,-0.0496 -0.727604,-0.11022 z m 33.486329,-0.5204 c 0.190996,-0.0764 0.419199,-0.067 0.507118,0.0209 0.08792,0.0879 -0.06835,0.15045 -0.347266,0.13896 -0.308224,-0.0127 -0.370919,-0.0754 -0.159852,-0.15985 z m 54.884508,-0.002 c 0.25466,-0.0666 0.67138,-0.0666 0.92604,0 0.25466,0.0665 0.0463,0.121 -0.46302,0.121 -0.50932,0 -0.71768,-0.0545 -0.46302,-0.121 z m 16.93333,0 c 0.25466,-0.0666 0.67138,-0.0666 0.92604,0 0.25467,0.0665 0.0463,0.121 -0.46302,0.121 -0.50932,0 -0.71768,-0.0545 -0.46302,-0.121 z m -80.697917,-0.26458 c 0.254662,-0.0666 0.671381,-0.0666 0.926042,0 0.254662,0.0665 0.0463,0.121 -0.463021,0.121 -0.509323,0 -0.717682,-0.0545 -0.463021,-0.121 z m -18.914624,-0.26933 c 0.329119,-0.0633 0.805369,-0.0609 1.058334,0.005 0.252965,0.0662 -0.01631,0.11801 -0.598398,0.11507 -0.582083,-0.003 -0.789054,-0.0571 -0.459936,-0.12041 z m -8.717798,-0.25819 c 0.190996,-0.0764 0.419199,-0.067 0.507118,0.0209 0.08792,0.0879 -0.06835,0.15045 -0.347266,0.13896 -0.308224,-0.0127 -0.370919,-0.0754 -0.159852,-0.15985 z m 86.039199,-6.53374 c 0,-0.0549 0.20836,-0.2633 0.46302,-0.46302 0.41964,-0.32911 0.429,-0.31975 0.0999,0.0999 -0.34564,0.44073 -0.56291,0.58089 -0.56291,0.36313 z m 3.43958,-2.91042 c 0,-0.0549 0.20836,-0.2633 0.46302,-0.46302 0.41964,-0.3291 0.429,-0.31975 0.0999,0.0999 -0.34565,0.44073 -0.56292,0.58088 -0.56292,0.36312 z m 5.42396,-3.60427 c 0.56839,-0.58208 1.09296,-1.05833 1.16572,-1.05833 0.0728,0 -0.33275,0.47625 -0.90114,1.05833 -0.56839,0.58208 -1.09296,1.05833 -1.16573,1.05833 -0.0728,0 0.33276,-0.47625 0.90115,-1.05833 z m -1.20168,-0.33073 c 1.09642,-1.16818 1.33397,-1.37824 1.33397,-1.17957 0,0.0425 -0.56555,0.60801 -1.25677,1.25678 l -1.25677,1.17956 z M 32.510708,108.23193 c 0.0127,-0.30823 0.07539,-0.37092 0.159852,-0.15985 0.07643,0.19099 0.06703,0.41919 -0.02089,0.50711 -0.08792,0.0879 -0.150453,-0.0683 -0.138964,-0.34726 z m 1.079221,-1.43316 c 0,-0.3638 0.06005,-0.51263 0.133452,-0.33073 0.0734,0.1819 0.0734,0.47956 0,0.66146 -0.0734,0.1819 -0.133452,0.0331 -0.133452,-0.33073 z m -1.275738,-7.143752 c 0,-1.091406 0.0467,-1.537891 0.103786,-0.992188 0.05708,0.545704 0.05708,1.43867 0,1.98438 -0.05708,0.5457 -0.103786,0.0992 -0.103786,-0.992192 z m 143.356989,1.322912 c 0,-0.3638 0.0601,-0.51263 0.13346,-0.33072 0.0734,0.1819 0.0734,0.47955 0,0.66145 -0.0734,0.1819 -0.13346,0.0331 -0.13346,-0.33073 z m 1.03745,-3.593919 c 0.0127,-0.308225 0.0754,-0.370919 0.15985,-0.159852 0.0764,0.190996 0.067,0.419199 -0.0209,0.507118 -0.0879,0.08792 -0.15045,-0.06835 -0.13896,-0.347266 z M 33.37039,93.172726 c 0.0012,-1.018646 0.049,-1.402943 0.106272,-0.853994 0.05728,0.548948 0.05632,1.382386 -0.0021,1.852083 -0.05845,0.469697 -0.105312,0.02056 -0.104138,-0.998089 z m -1.052705,-0.661458 c 0,-1.236927 0.04558,-1.742943 0.10128,-1.124479 0.0557,0.618463 0.0557,1.630494 0,2.248958 -0.0557,0.618464 -0.10128,0.112448 -0.10128,-1.124479 z M 175.94557,90.791476 c 0.005,-0.436562 0.0647,-0.583125 0.13177,-0.325694 0.0671,0.257431 0.0627,0.614619 -0.01,0.79375 -0.0725,0.179132 -0.12736,-0.03149 -0.12197,-0.468056 z m 1.04853,-1.719792 c 0,-0.363802 0.06,-0.51263 0.13345,-0.330729 0.0734,0.181901 0.0734,0.479557 0,0.661459 -0.0734,0.181901 -0.13345,0.03307 -0.13345,-0.33073 z M 79.098264,85.632101 c 0,-0.363802 0.06005,-0.51263 0.133452,-0.330729 0.0734,0.181901 0.0734,0.479557 0,0.661458 -0.0734,0.181901 -0.133452,0.03307 -0.133452,-0.330729 z m -0.02089,-4.12309 c 0.0127,-0.308225 0.07539,-0.37092 0.159852,-0.159853 0.07643,0.190996 0.06703,0.419199 -0.02089,0.507118 -0.08792,0.08792 -0.150453,-0.06835 -0.138964,-0.347265 z m -45.71813,-1.565452 c 0.002,-0.727604 0.05337,-0.993858 0.114186,-0.591674 0.06081,0.402183 0.05919,0.997495 -0.0036,1.322916 -0.0628,0.325421 -0.11256,-0.0036 -0.110574,-0.731242 z m -0.827648,-4.365625 c 0,-0.363802 0.06005,-0.51263 0.133452,-0.330729 0.0734,0.181901 0.0734,0.479557 0,0.661458 -0.0734,0.181901 -0.133452,0.03307 -0.133452,-0.330729 z m 144.482114,-1.5875 c 0,-0.509323 0.0545,-0.717682 0.121,-0.463021 0.0665,0.254662 0.0665,0.67138 0,0.926042 -0.0666,0.254661 -0.121,0.0463 -0.121,-0.463021 z m -1.09883,-3.858507 c 0.0127,-0.308225 0.0754,-0.370919 0.15985,-0.159852 0.0764,0.190996 0.067,0.419199 -0.0209,0.507118 -0.0879,0.08792 -0.15045,-0.06835 -0.13896,-0.347266 z m 0.79375,-2.645833 c 0.0127,-0.308225 0.0754,-0.37092 0.15985,-0.159853 0.0764,0.190996 0.067,0.419199 -0.0209,0.507118 -0.0879,0.08792 -0.15045,-0.06835 -0.13896,-0.347265 z M 89.375238,57.221789 c 0,-0.05494 0.208359,-0.263302 0.463021,-0.463021 0.419644,-0.329108 0.429002,-0.319749 0.0999,0.09989 -0.345644,0.440729 -0.562916,0.580887 -0.562916,0.363126 z m 1.719792,-0.429272 c 0.263389,-0.291042 0.53842,-0.529167 0.611181,-0.529167 0.07276,0 -0.08321,0.238125 -0.346598,0.529167 -0.263389,0.291042 -0.53842,0.529167 -0.611181,0.529167 -0.07276,0 0.08321,-0.238125 0.346598,-0.529167 z m 50.25419,-1.124479 -0.77711,-0.859896 0.8599,0.777105 c 0.80154,0.724371 0.98151,0.942687 0.77711,0.942687 -0.0455,0 -0.43249,-0.386954 -0.8599,-0.859896 z M 91.491905,55.072725 c 0.341774,-0.363802 0.680939,-0.661458 0.753699,-0.661458 0.07276,0 -0.147342,0.297656 -0.489116,0.661458 -0.341774,0.363802 -0.680939,0.661459 -0.753699,0.661459 -0.07276,0 0.147342,-0.297657 0.489116,-0.661459 z m 25.603175,-9.319877 c 0.47555,-0.05889 1.18993,-0.05767 1.5875,0.0027 0.39758,0.06037 0.008,0.108551 -0.86463,0.107066 -0.87313,-0.0015 -1.19842,-0.05088 -0.72287,-0.109766 z M 38.83982,44.786372 c 0,-0.05494 0.208359,-0.263302 0.463021,-0.463021 0.419644,-0.329108 0.429002,-0.319749 0.09989,0.09989 -0.345643,0.440729 -0.562915,0.580887 -0.562915,0.363126 z m 75.09206,-0.08085 c 0.191,-0.07643 0.4192,-0.06703 0.50712,0.02089 0.0879,0.08792 -0.0683,0.150453 -0.34727,0.138964 -0.30822,-0.0127 -0.37092,-0.07539 -0.15985,-0.159852 z m 39.34024,-3.258843 c 0.26338,-0.291041 0.53842,-0.529166 0.61118,-0.529166 0.0728,0 -0.0832,0.238125 -0.3466,0.529166 -0.26339,0.291042 -0.53842,0.529167 -0.61118,0.529167 -0.0728,0 0.0832,-0.238125 0.3466,-0.529167 z M 53.854924,41.271455 c 0.181901,-0.0734 0.479558,-0.0734 0.661459,0 0.181901,0.0734 0.03307,0.133452 -0.330729,0.133452 -0.363802,0 -0.512631,-0.06005 -0.33073,-0.133452 z m 12.572745,-0.272709 c 0.257431,-0.06708 0.614618,-0.06267 0.79375,0.0098 0.179131,0.07247 -0.03149,0.127362 -0.468057,0.12197 -0.436562,-0.0054 -0.583124,-0.06469 -0.325693,-0.131774 z M 55.579752,32.002913 c 0.257431,-0.06708 0.614618,-0.06267 0.79375,0.0098 0.179131,0.07248 -0.03149,0.127362 -0.468057,0.12197 -0.436562,-0.0054 -0.583124,-0.06469 -0.325693,-0.131773 z m 3.439583,0 c 0.257431,-0.06708 0.614619,-0.06267 0.79375,0.0098 0.179132,0.07248 -0.03149,0.127362 -0.468056,0.12197 -0.436563,-0.0054 -0.583125,-0.06469 -0.325694,-0.131773 z m 31.414236,-1.271855 c 0.790423,-0.800365 1.496664,-1.455208 1.569424,-1.455208 0.07276,0 -0.514418,0.654843 -1.30484,1.455208 -0.790423,0.800365 -1.496663,1.455208 -1.569424,1.455208 -0.07276,0 0.514418,-0.654843 1.30484,-1.455208 z m 3.307292,-1.984375 c 0.263389,-0.291042 0.538421,-0.529167 0.611181,-0.529167 0.07276,0 -0.08321,0.238125 -0.346597,0.529167 -0.26339,0.291042 -0.538421,0.529167 -0.611181,0.529167 -0.07276,0 0.08321,-0.238125 0.346597,-0.529167 z m 2.910417,-4.233334 c 0.263389,-0.291041 0.538421,-0.529166 0.611181,-0.529166 0.07276,0 -0.08321,0.238125 -0.346598,0.529166 -0.263389,0.291042 -0.53842,0.529167 -0.611181,0.529167 -0.07276,0 0.08321,-0.238125 0.346598,-0.529167 z m 21.77852,-5.73699 c 0.19099,-0.07643 0.4192,-0.06703 0.50711,0.02089 0.0879,0.08792 -0.0683,0.150453 -0.34726,0.138964 -0.30823,-0.0127 -0.37092,-0.07539 -0.15985,-0.159852 z"
         id="path32" /><path
         style="fill:#51130e;fill-opacity:1"
         d="m 136.33879,126.08903 c -14.93212,-0.65189 -26.44191,-2.8083 -33.33751,-6.24594 -14.610119,-7.28354 -22.388154,-18.14988 -23.6854,-33.089782 -1.215971,-14.003893 5.682027,-27.981892 17.716109,-35.899656 4.322141,-2.843733 8.041351,-4.406432 13.045261,-5.481225 4.08818,-0.878102 10.3473,-0.83213 14.37745,0.1056 6.11475,1.422771 13.27955,5.133368 17.55481,9.0915 6.10496,5.652113 11.81765,16.07973 13.02017,23.766273 0.41724,2.666988 0.12194,9.498441 -0.5327,12.323384 -1.17702,5.079147 -3.40378,10.058326 -6.20199,13.868036 -3.21137,4.37221 -14.1847,14.55104 -14.90755,13.82819 -0.24691,-0.2469 0.50155,-1.02987 2.95134,-3.08743 4.70437,-3.95115 9.93003,-9.56935 12.41694,-13.34968 4.0786,-6.199846 5.46389,-10.929465 5.46389,-18.654725 0,-5.105709 -0.3662,-7.340581 -1.80032,-10.987161 -3.96098,-10.07174 -11.45633,-18.769359 -19.78468,-22.958188 -4.87164,-2.450243 -9.37331,-3.469219 -15.21354,-3.44366 -13.67117,0.05983 -23.462091,5.570601 -31.629178,17.80233 -3.582017,5.364736 -5.50229,12.695666 -5.508406,21.029163 -0.0045,6.068189 0.885934,9.939986 3.529045,15.345831 2.034635,4.16136 3.78915,6.57974 7.404868,10.20669 8.273016,8.29872 17.825941,12.33048 32.818261,13.85076 12.17385,1.23448 36.766,1.23924 42.75471,0.008 2.61828,-0.53818 5.72942,-1.8143 6.87465,-2.81982 1.15077,-1.01038 1.35242,-2.09605 1.68563,-9.07508 0.91941,-19.256858 0.99393,-41.496686 0.16622,-49.60938 -1.36249,-13.354405 -3.69907,-19.361035 -8.43752,-21.690306 -1.59887,-0.785953 -4.80823,-1.552105 -5.13458,-1.22575 -0.0902,0.09019 0.0792,0.431397 0.37645,0.758245 2.8356,3.118128 3.06004,6.635164 0.58609,9.184393 -3.2367,3.335198 -8.76187,2.854267 -10.99547,-0.957086 -0.96798,-1.651727 -1.19989,-3.126099 -0.77752,-4.94306 0.52282,-2.2491 1.36567,-3.194065 4.53763,-5.087361 0.42157,-0.251626 0.37332,-0.340653 -0.46555,-0.859104 -0.51472,-0.318114 -1.85419,-0.878166 -2.97661,-1.24456 -3.25176,-1.061483 -6.90296,-2.964761 -8.51649,-4.439433 -0.80158,-0.732597 -2.6908,-2.89022 -4.19827,-4.794716 -1.50748,-1.904497 -3.18612,-3.811078 -3.73033,-4.236848 -3.28696,-2.571613 -8.50438,-3.859376 -17.30529,-4.271286 -4.55985,-0.213414 -8.58107,0.158816 -11.80334,1.092595 -4.85217,1.406104 -6.852824,2.840285 -13.99354,10.031361 -10.393212,10.46651 -11.134022,10.722579 -32.543751,11.24909 -16.79371,0.412994 -18.025304,0.713797 -20.974169,5.122716 -3.049777,4.559796 -4.525497,10.648355 -5.396313,22.264236 -0.428872,5.720759 -0.411344,34.328894 0.02505,40.878124 0.474784,7.12543 1.032679,8.93137 3.520911,11.39744 1.663663,1.64884 3.385567,2.49453 5.891191,2.89336 2.421809,0.3855 13.037348,0.76897 21.695834,0.78373 8.22559,0.014 22.276122,0.46444 23.018751,0.7379 1.018535,0.37507 -7.56291,0.46038 -26.13778,0.25986 l -18.729447,-0.2022 -2.437221,-1.21824 c -1.340471,-0.67004 -2.942568,-1.62885 -3.560214,-2.13071 -2.488218,-2.02175 -3.681088,-5.46989 -4.320022,-12.48756 -0.602378,-6.61616 -0.205268,-39.481214 0.569467,-47.129413 0.937501,-9.255027 4.343605,-17.424049 8.379705,-20.097451 1.713698,-1.135106 3.461374,-1.587468 6.983309,-1.807536 l 3.004285,-0.187722 -2.343018,-1.319779 c -2.436668,-1.372531 -3.874691,-2.699334 -3.874691,-3.575013 0,-0.751093 1.363807,-2.175401 2.865713,-2.99284 1.95972,-1.066614 4.517232,-1.305093 12.804762,-1.194 8.012284,0.107403 8.484029,0.19903 10.602864,2.059392 0.783544,0.68796 0.978746,1.046744 0.978746,1.798949 0,1.260145 -1.435643,2.624006 -3.693547,3.508872 -0.92848,0.363868 -1.73229,0.794011 -1.786244,0.955873 -0.218357,0.655072 2.493879,0.810209 6.280482,0.359238 5.064775,-0.603198 8.480182,-1.863558 11.779685,-4.346964 1.0422,-0.784423 4.204143,-3.731709 7.026538,-6.549524 7.202231,-7.190542 9.534054,-8.842799 14.121844,-10.006273 3.53062,-0.895377 6.71635,-1.143407 12.44103,-0.968618 5.61371,0.171402 7.9795,0.435024 11.12613,1.239796 4.08524,1.04483 6.07538,2.497156 10.25417,7.483096 3.58167,4.273489 5.33373,5.804953 8.2081,7.174665 3.75929,1.791395 7.83333,3.184196 12.88307,4.404367 7.08296,1.711459 8.93027,2.737887 10.73474,5.96458 2.38331,4.261748 3.78578,10.838568 4.64896,21.801059 1.01437,12.882536 -0.30902,52.641436 -1.8318,55.033336 -0.55358,0.86954 -0.96776,1.18842 -2.70983,2.08634 -1.89358,0.97601 -4.34749,1.75725 -7.14375,2.27431 -4.53243,0.83811 -17.54877,1.12925 -28.70728,0.64211 z m 23.40809,-75.40105 c 1.79345,-0.813524 2.92271,-1.787483 3.4701,-2.992873 0.62977,-1.386808 0.62511,-2.388911 -0.0177,-3.80513 -0.63011,-1.388228 -2.90997,-3.842226 -4.08966,-4.402024 -0.7828,-0.371464 -1.01188,-0.373457 -2.20485,-0.01918 -3.2051,0.951815 -5.08786,3.13469 -5.08786,5.898887 0,2.485285 1.39273,4.267383 4.18991,5.361264 1.59346,0.623148 2.29293,0.615492 3.74006,-0.04094 z M 64.751189,38.804585 c 2.656103,-0.758447 5.679965,-2.186517 6.497338,-3.068478 0.643823,-0.694696 0.651898,-0.743669 0.204247,-1.238679 -1.292588,-1.429337 -4.573213,-2.136896 -11.313995,-2.44018 -4.494205,-0.202205 -7.892824,0.131072 -10.488878,1.028566 -2.235164,0.772728 -3.239807,1.674672 -2.906704,2.609567 0.492071,1.381064 4.079452,3.039235 7.839332,3.623521 2.584638,0.401654 7.902921,0.132663 10.16866,-0.514317 z"
         id="path33" /></g><path
       style="fill:#51130e;stroke-width:0.286327;fill-opacity:1"
       d="m 366.55265,289.06188 c -0.79736,-0.20939 -1.18956,-0.75575 -0.91861,-1.27973 0.0647,-0.12502 0.17273,-0.24847 0.24018,-0.27435 0.20666,-0.0793 0.52837,-0.0525 0.67734,0.0565 0.12502,0.0914 0.13032,0.13051 0.0454,0.33534 -0.0528,0.12751 -0.0735,0.30292 -0.0459,0.38978 0.10928,0.34433 0.83626,0.49576 1.34982,0.28118 0.53731,-0.22451 0.92695,-0.95456 1.10254,-2.06588 l 0.0613,-0.38795 -0.39103,0.40051 c -0.4573,0.4684 -0.83153,0.60847 -1.32774,0.49698 -0.17346,-0.039 -0.39797,-0.14846 -0.49893,-0.24329 -0.38313,-0.35992 -0.5237,-1.48596 -0.29509,-2.36367 0.16788,-0.6445 0.43307,-1.11204 0.85428,-1.50602 0.54398,-0.50883 1.11873,-0.63353 1.87328,-0.40645 0.31837,0.0958 0.38452,0.0958 0.52131,0 0.19235,-0.13473 0.65328,-0.1466 0.65328,-0.0169 0,0.18024 -0.61619,3.89074 -0.72557,4.36915 -0.24211,1.05897 -0.72749,1.74855 -1.4583,2.07182 -0.36683,0.16227 -1.33673,0.24301 -1.71765,0.143 z m 1.7872,-2.71707 c 0.55405,-0.46619 0.90827,-1.3028 1.07729,-2.54432 l 0.10124,-0.74358 -0.21017,-0.1087 c -0.28607,-0.14793 -0.7431,-0.1359 -0.98865,0.0261 -0.81404,0.53686 -1.30625,2.4072 -0.86038,3.26939 0.19085,0.36906 0.51767,0.40659 0.88069,0.10112 z m 11.41352,2.70078 c -0.19905,-0.11592 -0.17416,-0.4287 0.25077,-3.15239 0.21085,-1.35145 0.37278,-2.54878 0.35986,-2.66074 -0.0202,-0.17422 -0.0633,-0.20684 -0.29984,-0.22658 -0.19487,-0.0163 -0.28732,-0.065 -0.31362,-0.16557 -0.045,-0.172 0.37826,-0.3661 0.94435,-0.43315 0.49414,-0.0585 0.57584,0.0246 0.53294,0.54184 l -0.0344,0.41487 0.44474,-0.44463 c 0.32453,-0.32446 0.52153,-0.45901 0.72883,-0.49787 0.60021,-0.11243 1.1016,0.12812 1.31091,0.62906 0.18241,0.43657 0.21846,1.26771 0.0804,1.85418 -0.38209,1.62328 -1.41226,2.42042 -2.68524,2.0778 -0.29062,-0.0783 -0.41211,-0.0848 -0.43352,-0.0236 -0.0602,0.1724 -0.18431,1.07848 -0.18487,1.34995 l -5.7e-4,0.27994 0.35918,0.023 c 0.26563,0.0171 0.36549,0.0566 0.38349,0.15133 0.0466,0.24551 -1.11617,0.47299 -1.44343,0.28236 z m 2.22067,-2.58965 c 0.58143,-0.39184 0.98588,-1.35116 0.98807,-2.34361 0.003,-0.81668 -0.15651,-1.14955 -0.56261,-1.18298 -0.24636,-0.0202 -0.32534,0.0142 -0.53031,0.23218 -0.51864,0.55133 -1.00763,1.85104 -1.052,2.79621 -0.0205,0.43744 -0.008,0.47913 0.16724,0.5697 0.29182,0.15059 0.70426,0.12078 0.98961,-0.0715 z m -30.40763,0.51528 c -0.17587,-0.17587 -0.16196,-0.44152 0.10415,-1.98951 0.12735,-0.7407 0.21218,-1.44675 0.18849,-1.56903 -0.13053,-0.67394 -0.82489,-0.65115 -1.32816,0.0437 -0.33654,0.46456 -0.52562,1.04372 -0.75856,2.3234 -0.11615,0.63793 -0.22803,1.17678 -0.2487,1.19744 -0.0206,0.0207 -0.2057,0.0271 -0.41121,0.0144 l -0.37366,-0.0232 0.43884,-2.72727 c 0.24136,-1.49998 0.43983,-2.85391 0.44103,-3.00868 0.002,-0.30917 -0.14053,-0.43828 -0.48524,-0.43828 -0.15451,0 -0.19437,-0.0372 -0.19437,-0.18128 0,-0.22746 0.0926,-0.26203 0.86008,-0.32102 0.88227,-0.0678 0.86277,-0.11967 0.5819,1.54754 -0.12643,0.7504 -0.22987,1.40656 -0.22987,1.45811 0,0.0516 0.14358,-0.0694 0.31904,-0.26871 0.68116,-0.77384 1.68707,-0.85744 2.10326,-0.1748 0.20326,0.33338 0.19446,0.57125 -0.0767,2.07231 -0.12657,0.70071 -0.21141,1.32282 -0.18852,1.38243 0.0419,0.10928 0.30862,0.10043 0.58909,-0.0196 0.10485,-0.0447 0.13255,-0.0194 0.13245,0.12185 -3.3e-4,0.40291 -1.17215,0.85152 -1.46343,0.56025 z m 3.26592,0.0404 c -0.65975,-0.21345 -0.96903,-0.7383 -0.96903,-1.64438 0,-1.24689 0.53913,-2.31592 1.40149,-2.77902 0.44631,-0.23965 1.40328,-0.2349 1.79542,0.008 0.43557,0.27084 0.61166,0.62203 0.65078,1.2979 0.0763,1.31877 -0.47731,2.50848 -1.3856,2.97741 -0.3347,0.17279 -1.15329,0.2491 -1.49306,0.13915 z m 1.28013,-0.79962 c 0.45558,-0.49762 0.64677,-1.04735 0.68789,-1.97788 0.0367,-0.82957 -0.0542,-1.15446 -0.37008,-1.3235 -0.44153,-0.2363 -1.11511,0.29223 -1.43998,1.12991 -0.20496,0.52849 -0.28742,1.78165 -0.14055,2.13619 0.23636,0.57066 0.75919,0.58525 1.26272,0.0353 z m 2.90232,0.77194 c -0.10415,-0.0528 -0.23838,-0.19708 -0.29825,-0.32086 -0.0976,-0.20189 -0.0866,-0.37716 0.10741,-1.70233 0.11892,-0.81249 0.2313,-1.58806 0.24972,-1.72348 l 0.0335,-0.24621 h -0.34676 c -0.32536,0 -0.34294,-0.0105 -0.28513,-0.16655 0.0339,-0.0916 0.16063,-0.19822 0.28164,-0.23695 0.33696,-0.10777 0.69411,-0.40556 0.88285,-0.73607 0.13,-0.22769 0.21761,-0.29879 0.36868,-0.29923 0.19245,-5.7e-4 0.19637,0.008 0.13587,0.32138 -0.11983,0.61947 -0.15826,0.58713 0.69753,0.58713 0.75783,0 0.76589,0.003 0.72073,0.17044 -0.0252,0.0938 -0.0461,0.21307 -0.0467,0.26516 -7.7e-4,0.0696 -0.20904,0.0947 -0.78577,0.0947 h -0.78474 l -0.1981,1.26895 c -0.30753,1.96994 -0.31139,2.01802 -0.17128,2.13429 0.16752,0.13904 0.56278,0.0635 0.95158,-0.18201 0.25109,-0.1585 0.33927,-0.18143 0.4248,-0.11044 0.18439,0.15305 0.12167,0.2737 -0.27431,0.5278 -0.67543,0.43343 -1.26041,0.55804 -1.6632,0.3543 z m 3.67423,-0.0158 c -0.73118,-0.25852 -1.0463,-1.00723 -0.88621,-2.10559 0.17261,-1.18425 0.81338,-2.12155 1.61265,-2.35891 1.1055,-0.32829 1.98049,0.0888 2.19474,1.04623 0.21597,0.96498 -0.23732,2.4432 -0.93136,3.03727 -0.52963,0.45335 -1.34414,0.60931 -1.98982,0.381 z m 1.07651,-0.48956 c 0.55732,-0.33983 0.9487,-1.28205 0.96088,-2.31328 0.009,-0.79828 -0.0972,-1.121 -0.41364,-1.25207 -0.45407,-0.1881 -0.93019,0.133 -1.27539,0.86016 -0.77439,1.63118 -0.31422,3.34075 0.72815,2.70519 z m 11.60921,0.43267 c -0.4023,-0.27113 -0.55071,-0.60034 -0.58607,-1.30006 -0.057,-1.1263 0.29037,-2.1097 0.9566,-2.70869 0.56993,-0.51241 1.12285,-0.62937 1.89345,-0.40053 0.35514,0.10544 0.41034,0.10544 0.56091,0 0.22334,-0.15642 0.58784,-0.15504 0.58784,0.003 0,0.0656 -0.13713,0.93691 -0.30473,1.9363 -0.16759,0.9994 -0.28288,1.85242 -0.25618,1.89562 0.0486,0.0786 0.33862,0.0566 0.56989,-0.0432 0.0859,-0.0371 0.13481,-0.006 0.16334,0.10288 0.0452,0.17285 -0.19181,0.37984 -0.65792,0.57459 -0.63142,0.26382 -1.00116,0.0541 -0.93527,-0.53058 l 0.0387,-0.34287 -0.30974,0.35189 c -0.53735,0.61046 -1.22637,0.79563 -1.72077,0.46246 z m 1.29274,-0.56165 c 0.50343,-0.4236 0.88712,-1.32839 1.09048,-2.57153 0.1,-0.6108 0.0988,-0.68208 -0.0117,-0.76711 -0.16505,-0.12716 -0.58242,-0.19869 -0.81645,-0.13996 -0.54859,0.13768 -1.09156,0.99632 -1.24964,1.97611 -0.21622,1.3402 0.28085,2.09678 0.98713,1.50249 z m 10.80793,0.62161 c -0.17588,-0.17587 -0.16197,-0.44152 0.10415,-1.98949 0.12734,-0.74069 0.21217,-1.44677 0.18848,-1.56904 -0.13052,-0.67393 -0.82489,-0.65115 -1.32815,0.0435 -0.33655,0.46458 -0.52563,1.04374 -0.75857,2.32343 -0.11616,0.63792 -0.22803,1.17678 -0.24868,1.19743 -0.0206,0.0206 -0.20571,0.027 -0.41122,0.0144 l -0.37366,-0.0232 0.43883,-2.72726 c 0.24137,-1.5 0.43982,-2.85391 0.44104,-3.00869 0.003,-0.30916 -0.14053,-0.43826 -0.48524,-0.43826 -0.15452,0 -0.19438,-0.0373 -0.19438,-0.1813 0,-0.22744 0.0926,-0.26203 0.86008,-0.321 0.88228,-0.0678 0.86278,-0.11969 0.5819,1.54752 -0.12642,0.75041 -0.22986,1.40656 -0.22986,1.45811 0,0.0516 0.14356,-0.0694 0.31904,-0.26871 0.68116,-0.77383 1.68706,-0.85744 2.10325,-0.1748 0.20327,0.33339 0.19446,0.57126 -0.0766,2.07231 -0.12656,0.70073 -0.21141,1.32282 -0.18852,1.38245 0.0419,0.10928 0.30862,0.10042 0.58909,-0.0196 0.10485,-0.0447 0.13254,-0.0193 0.13244,0.12186 -2.8e-4,0.4029 -1.17214,0.85152 -1.46342,0.56024 z m 3.17984,0.004 c -0.69172,-0.25834 -0.92212,-0.75027 -0.86405,-1.8448 0.053,-0.99894 0.25415,-1.50941 0.81888,-2.07824 0.50851,-0.51221 1.04406,-0.71424 1.7109,-0.64542 0.71623,0.0739 1.08791,0.4326 1.08739,1.04936 -5.8e-4,0.79992 -0.84109,1.41832 -2.17777,1.60246 l -0.62499,0.0861 2.9e-4,0.22943 c 2.5e-4,0.12619 0.0372,0.36163 0.0821,0.5232 0.20035,0.72155 0.78489,0.85663 1.64977,0.38125 0.46463,-0.25541 0.50075,-0.26374 0.5934,-0.13704 0.14019,0.19172 0.12804,0.22758 -0.14755,0.43556 -0.5708,0.43074 -1.55045,0.61401 -2.12839,0.39815 z m 1.02518,-2.51778 c 0.50006,-0.15905 0.89488,-0.60608 0.89488,-1.01321 0,-0.74998 -0.864,-0.82488 -1.40054,-0.12143 -0.19639,0.25747 -0.4934,0.99482 -0.4934,1.22489 0,0.10101 0.0557,0.11359 0.32198,0.0724 0.17708,-0.0274 0.48176,-0.10054 0.67708,-0.16268 z m -20.36357,2.33926 c 0.16336,-0.8218 0.50433,-3.27651 0.48581,-3.49739 -0.0214,-0.25516 -0.0402,-0.27297 -0.31148,-0.29532 -0.24671,-0.0204 -0.28529,-0.0475 -0.26515,-0.18702 0.0418,-0.2895 1.29102,-0.57441 1.48395,-0.33844 0.0501,0.0614 0.0542,0.24025 0.0117,0.50726 -0.0774,0.48432 -0.0484,0.55411 0.10695,0.25734 0.12773,-0.24395 0.53605,-0.64754 0.78357,-0.77445 0.27515,-0.14107 0.53872,-0.0966 0.79753,0.13468 0.20338,0.18172 0.24567,0.27441 0.24567,0.53833 0,0.47534 -0.41205,0.79351 -0.8233,0.63569 -0.0925,-0.0355 -0.10893,-0.11207 -0.0725,-0.33964 0.0374,-0.2341 0.021,-0.30379 -0.081,-0.34291 -0.53528,-0.20541 -1.13532,0.97039 -1.36911,2.68272 -0.1836,1.34492 -0.12498,1.22749 -0.61269,1.22749 -0.41908,0 -0.42103,-8.5e-4 -0.37983,-0.20834 z m 22.74118,0.0758 c 0.016,-0.073 0.15013,-0.92909 0.29802,-1.9026 0.29558,-1.94567 0.29269,-1.97998 -0.1665,-1.97998 -0.22649,0 -0.25794,-0.0223 -0.23694,-0.16806 0.0437,-0.30292 1.28915,-0.58016 1.49454,-0.33269 0.0623,0.0749 0.0674,0.23348 0.0183,0.54925 -0.0662,0.42557 -0.0641,0.43617 0.0544,0.25633 0.36538,-0.55469 0.81078,-0.91088 1.13896,-0.91088 0.41169,0 0.76491,0.36828 0.76491,0.79751 0,0.25744 -0.3795,0.64187 -0.63363,0.64187 -0.23287,0 -0.30009,-0.0982 -0.30759,-0.44969 -0.008,-0.36213 -0.25852,-0.41049 -0.54282,-0.10462 -0.46436,0.4995 -0.76124,1.41854 -0.94563,2.92724 l -0.0989,0.80894 h -0.43318 c -0.37314,0 -0.42913,-0.0184 -0.40404,-0.13258 z m -50.57349,-0.0931 c 0,-0.10251 0.0659,-0.16399 0.20832,-0.19402 0.11453,-0.0242 0.31061,-0.0885 0.43561,-0.14289 l 0.22728,-0.0989 0.40664,-2.54581 c 0.22366,-1.40019 0.38673,-2.59774 0.36238,-2.6612 -0.0243,-0.0635 -0.19883,-0.15672 -0.38772,-0.20724 -0.28082,-0.075 -0.34343,-0.12352 -0.34343,-0.26553 v -0.17369 h 1.35991 c 1.84733,0 2.33018,0.1235 2.7619,0.7064 0.24003,0.32408 0.21744,1.15688 -0.0469,1.73153 -0.34248,0.74434 -1.02186,1.09754 -2.26318,1.17659 l -0.65047,0.0415 -0.16876,1.09647 c -0.0928,0.60308 -0.15009,1.11514 -0.12726,1.13797 0.0228,0.0228 0.20396,0.0826 0.40256,0.13275 0.275,0.0696 0.36684,0.13 0.38528,0.25375 0.024,0.16073 0.0105,0.16248 -1.26895,0.16248 -1.23849,0 -1.29314,-0.006 -1.29314,-0.15007 z m 3.19252,-3.19541 c 0.72842,-0.21825 1.17064,-0.90536 1.11124,-1.72662 -0.0391,-0.54205 -0.23028,-0.79502 -0.69497,-0.92015 -0.32195,-0.0867 -0.92353,-0.0327 -0.99915,0.0897 -0.0532,0.0861 -0.40828,2.22451 -0.4109,2.47461 -0.001,0.1525 0.0352,0.17047 0.34927,0.17047 0.19309,0 0.48312,-0.0396 0.64451,-0.088 z"
       id="path34" /><path
       d="m 378.96607,281.67267 c -0.0167,-0.0196 -0.0649,-1.99374 -0.107,-4.38694 l -0.0766,-4.35127 -0.53499,-0.0443 c -0.65209,-0.054 -0.72177,-0.39136 -0.10864,-0.52602 0.2345,-0.0515 0.47525,-0.16895 0.53499,-0.261 0.0598,-0.092 0.14074,-3.02421 0.17997,-6.51593 l 0.0713,-6.34858 h 0.428 0.42799 l 0.0372,6.129 c 0.0205,3.37096 0.0914,6.18319 0.15762,6.2494 0.16777,0.16777 2.92156,-1.06301 4.4918,-2.00756 1.36379,-0.82036 3.16165,-2.20942 3.62955,-2.80427 0.24593,-0.31265 0.28209,-0.694 0.36171,-3.81431 0.0486,-1.90681 0.17516,-3.937 0.28114,-4.51153 l 0.19269,-1.0446 -0.498,-0.41049 c -2.75518,-2.27104 -8.04383,-2.57359 -13.53639,-0.77436 -2.99486,0.98105 -5.60087,2.47644 -7.31517,4.19764 -1.10882,1.11329 -1.85464,2.428 -1.85464,3.26932 0,0.62583 -0.17478,0.73192 -0.7227,0.43867 -0.37397,-0.20014 -0.36333,-1.00837 0.0238,-1.80806 0.16486,-0.34055 0.78234,-1.13218 1.37218,-1.75919 2.20201,-2.34074 5.75406,-4.2389 9.83088,-5.25344 2.61743,-0.65136 3.65563,-0.78749 6.04495,-0.79257 3.05449,-0.006 4.71268,0.41278 6.51517,1.64737 0.44248,0.30305 0.69881,0.3864 1.00194,0.32578 0.54516,-0.10903 0.85838,0.25294 1.03787,1.19939 0.0771,0.40644 0.23845,0.92907 0.3586,1.16142 0.38734,0.74903 0.66086,2.24074 0.55783,3.04229 -0.13296,1.03446 -0.65226,2.5203 -1.18139,3.38024 -0.37311,0.60639 -0.50343,1.07664 -0.80119,2.891 -0.19558,1.19176 -0.3556,2.4551 -0.3556,2.80745 v 0.64061 l 0.46367,-0.77356 c 0.53787,-0.89738 1.23922,-1.42511 1.89393,-1.42511 0.65667,0 0.83948,0.31359 0.9342,1.60252 0.0859,1.16859 0.20691,1.38624 0.77415,1.39193 0.17458,0.002 0.71164,-0.44944 1.38366,-1.16246 1.06817,-1.13331 1.1191,-1.16704 1.85486,-1.22805 1.0366,-0.086 1.32168,0.22132 1.33959,1.44391 0.0157,1.07162 0.23871,1.18465 0.97352,0.49342 l 0.50244,-0.47264 0.0959,-1.74455 c 0.11354,-2.06442 0.0636,-2.17872 -0.95181,-2.17872 -0.69697,0 -1.03122,-0.18409 -0.62045,-0.34172 0.12366,-0.0474 0.53372,-0.0863 0.91123,-0.0863 0.79488,0 0.85959,-0.0901 0.85959,-1.19705 0,-0.82587 0.25817,-1.32394 0.61523,-1.18692 0.17712,0.068 0.2379,0.33786 0.2703,1.20016 l 0.0418,1.11248 2.06864,0.0371 c 1.13775,0.0204 2.15807,0.0701 2.26738,0.11036 0.48154,0.17738 -0.15063,0.28545 -2.05813,0.35183 -1.20322,0.0418 -2.11471,0.13609 -2.20661,0.22811 -0.0955,0.0956 -0.18543,1.12587 -0.23046,2.6393 -0.0797,2.67839 0.0106,3.15287 0.61675,3.24016 0.69572,0.10019 2.5661,-1.33772 3.07844,-2.36665 0.42685,-0.85725 1.08742,-1.31563 1.89599,-1.31563 0.85985,0 1.2019,0.45211 1.2019,1.58856 0,0.89908 0.0653,0.95788 0.69923,0.63004 0.57446,-0.29706 0.91735,-0.86507 0.73166,-1.21201 -0.22244,-0.41564 -0.17869,-0.68052 0.16533,-1.00103 0.50138,-0.46711 1.68507,-0.33959 1.68507,0.18152 0,0.0715 -0.21969,0.0888 -0.4882,0.0385 -0.28065,-0.0526 -0.52642,-0.0298 -0.5781,0.0539 -0.10922,0.17672 0.24373,0.92906 0.69461,1.48065 l 0.33081,0.4047 0.88816,-0.44834 c 1.19682,-0.60416 1.43188,-0.46813 0.35523,0.20556 l -0.86612,0.54197 0.0621,0.74903 c 0.0516,0.62307 0.0114,0.79978 -0.23953,1.05069 -0.67236,0.67236 -2.15038,0.11154 -1.93783,-0.7353 0.0539,-0.2148 0.29378,-0.55527 0.53305,-0.7566 l 0.43503,-0.36606 -0.35467,-0.35466 -0.35466,-0.35467 -0.57848,0.57847 c -0.37757,0.37758 -0.70646,0.57848 -0.94696,0.57848 -0.20786,0 -0.58593,0.19093 -0.86732,0.438 -1.19954,1.0532 -2.27623,0.799 -2.71854,-0.64186 -0.0742,-0.24155 -0.17543,-0.18738 -0.82815,0.44291 -1.0319,0.99643 -1.36027,1.1876 -2.03994,1.1876 -0.7589,0 -1.25476,-0.47182 -1.49953,-1.42684 l -0.17854,-0.69666 -0.41408,0.34843 c -0.23288,0.19596 -0.59699,0.34842 -0.83207,0.34842 -0.26712,0 -0.529,0.12767 -0.72554,0.35371 -0.42831,0.4926 -1.38551,0.84148 -1.83614,0.66922 -0.47618,-0.18202 -0.80212,-0.57291 -0.94636,-1.13496 l -0.12029,-0.46868 -0.48012,0.35422 c -1.3148,0.97003 -2.1586,0.54019 -2.38215,-1.21351 -0.13195,-1.03506 -0.2953,-1.34716 -0.58101,-1.11004 -0.30696,0.25476 -0.95307,1.59474 -1.33275,2.76404 -0.39601,1.21954 -0.5166,1.38159 -0.98741,1.32686 l -0.36888,-0.0429 -0.0384,-3.16578 -0.0384,-3.16577 -1.17427,0.84233 c -1.33746,0.95938 -3.99095,2.3159 -5.88221,3.00711 -0.70619,0.25809 -1.33115,0.53695 -1.3888,0.61969 -0.0576,0.0827 -0.1058,2.08721 -0.107,4.45438 -0.001,2.36716 -0.0411,4.40548 -0.0888,4.5296 -0.0701,0.18263 -0.68212,0.32803 -0.7998,0.19 z m 31.21531,-7.88191 c 0.0492,-0.19598 0.0497,-0.46001 0.001,-0.58672 -0.12367,-0.32227 -0.51302,0.01 -0.51302,0.43744 0,0.58942 0.37414,0.69851 0.51199,0.14928 z m -13.85885,-0.44509 c 0.12629,-0.0485 0.29597,-0.21207 0.37705,-0.36357 0.11964,-0.22355 0.0651,-0.36916 -0.2893,-0.77283 -0.24019,-0.27356 -0.43671,-0.56314 -0.43671,-0.64351 0,-0.0804 -0.0605,-0.10873 -0.13442,-0.063 -0.22313,0.1379 -0.33682,1.29835 -0.15964,1.62942 0.17133,0.32012 0.27528,0.35464 0.64302,0.21353 z m 9.5738,-0.20556 c 0.2178,-0.24067 0.23408,-0.33724 0.0902,-0.535 -0.0966,-0.13272 -0.31177,-0.45485 -0.47818,-0.71586 -0.22502,-0.35292 -0.33331,-0.42605 -0.42253,-0.28533 -0.14256,0.22487 -0.16569,1.59828 -0.0292,1.73476 0.18451,0.1845 0.57709,0.0917 0.83977,-0.19857 z m -8.64096,-1.74771 c -0.001,-0.25039 -0.0654,-0.55155 -0.14267,-0.66924 -0.12486,-0.19022 -0.15608,-0.19022 -0.28095,0 -0.18397,0.28024 -0.17989,0.48033 0.0187,0.91613 0.20927,0.45932 0.40775,0.33831 0.40495,-0.24689 z m 9.21805,-0.61291 c -0.042,-0.10945 -0.14258,-0.199 -0.22351,-0.199 -0.2089,0 -0.18305,1.04801 0.0312,1.26425 0.14301,0.14434 0.18727,0.0764 0.2235,-0.34313 0.0249,-0.28772 0.0108,-0.61267 -0.0312,-0.72212 z m -16.96794,-3.80128 c -0.0396,-0.0981 -0.072,-0.0179 -0.072,0.17833 0,0.19617 0.0324,0.27641 0.072,0.17833 0.0396,-0.0981 0.0396,-0.25858 0,-0.35666 z m 0.47855,-3.47014 c 0.26953,-1.64811 0.33865,-3.86187 0.13587,-4.35143 -0.16434,-0.39675 -0.20201,-0.42073 -0.28948,-0.18428 -0.0553,0.14951 -0.1469,1.49037 -0.20355,2.97969 -0.0764,2.00855 -0.0614,2.6683 0.058,2.55468 0.0885,-0.0842 0.22317,-0.53365 0.29921,-0.99866 z"
       style="fill:#51130e;stroke-width:0.539205;fill-opacity:1"
       id="path35" /><path
       d="m 329.96317,287.96499 c -1.55503,-0.23525 -2.67192,-0.95529 -3.32524,-2.14375 -1.53269,-2.78807 1.10309,-6.25284 6.83654,-8.98676 2.18628,-1.0425 6.26927,-2.43858 8.52453,-2.91474 0.95905,-0.20249 1.76894,-0.39338 1.79975,-0.42419 0.12403,-0.12404 -0.31309,-1.18765 -0.76454,-1.86027 -1.1389,-1.69684 -3.93957,-3.06021 -7.33918,-3.5727 -1.19705,-0.18046 -2.65664,-0.2712 -2.74111,-0.17042 -0.0164,0.0196 -0.0646,1.80114 -0.107,3.95895 l -0.0771,3.92327 h -0.35666 -0.35667 l -0.0771,-3.92327 c -0.0424,-2.15781 -0.0906,-3.93564 -0.10699,-3.95074 -0.0164,-0.0151 -0.30274,-0.0472 -0.63622,-0.0713 -0.9025,-0.0653 -0.89202,-0.46492 0.0303,-1.15346 l 0.71872,-0.53658 v -3.35933 -3.35933 l 0.39233,0.0451 0.39233,0.0451 0.0713,2.94878 c 0.0392,1.62182 0.10652,2.98378 0.14952,3.02658 0.0945,0.0941 3.69733,-2.14193 5.307,-3.29373 1.63896,-1.17276 3.30837,-2.83703 3.52841,-3.51754 0.15843,-0.48999 0.14741,-0.59161 -0.10017,-0.92322 -0.15302,-0.20495 -0.59366,-0.53497 -0.9792,-0.7334 -0.64523,-0.33206 -0.84855,-0.36053 -2.55564,-0.35786 -2.1203,0.003 -3.54739,0.30704 -5.63525,1.19934 -2.21756,0.94774 -2.92684,1.54692 -3.88098,3.27861 -0.25867,0.46947 -0.6396,0.58086 -0.77548,0.22676 -0.36558,-0.95267 1.59195,-2.74813 4.19149,-3.84448 2.76682,-1.1669 6.65223,-1.69415 8.52986,-1.15751 1.10266,0.31514 1.87319,0.82509 2.16206,1.43086 0.22271,0.46702 0.21734,0.51176 -0.15204,1.26673 -0.68215,1.39428 -3.32889,3.54013 -7.52556,6.10138 -1.15219,0.70319 -2.13093,1.37245 -2.17498,1.48723 -0.10795,0.28131 0.0415,0.63669 0.26777,0.63669 0.66367,0 3.31717,0.32655 4.20846,0.51791 2.61783,0.56204 5.00559,1.72864 6.11289,2.9866 0.54793,0.62248 0.75295,0.97694 1.21787,2.10561 0.18336,0.44516 0.27773,0.52869 0.51292,0.45405 0.38816,-0.1232 0.39056,0.29093 0.003,0.49841 -0.21044,0.11262 -0.28533,0.29871 -0.28533,0.70902 0,2.5201 -1.98022,6.39985 -4.63372,9.07861 -3.09663,3.12613 -7.1467,4.8167 -10.37076,4.32895 z m 3.73396,-0.94307 c 1.2171,-0.40107 2.50367,-1.07736 3.85195,-2.0248 3.11117,-2.18622 6.17065,-6.9847 6.30647,-9.89104 l 0.0421,-0.90101 -0.55112,0.0438 c -0.87301,0.0695 -3.69269,0.84304 -5.64654,1.54911 -2.00661,0.72514 -4.31194,1.8397 -5.88129,2.84342 -1.40059,0.89579 -3.07909,2.61068 -3.61632,3.69471 -0.92159,1.85964 -0.54221,3.95949 0.83591,4.62663 1.35423,0.65557 2.79341,0.67384 4.65884,0.0591 z m 19.96963,-10.25302 c -0.13096,-0.15778 -0.15744,-0.55243 -0.0958,-1.42664 l 0.0853,-1.20852 h -0.44076 c -0.3179,0 -0.61808,0.16345 -1.07685,0.58632 -0.73729,0.67962 -2.55462,1.56602 -3.40918,1.66284 -0.80996,0.0917 -1.52606,-0.17637 -2.04276,-0.76485 -0.98776,-1.125 -0.27802,-2.94492 1.35919,-3.48525 0.5517,-0.18208 1.55809,-0.0907 1.87222,0.17002 0.2908,0.24134 0.21792,0.66172 -0.15733,0.90759 -0.1885,0.12352 -0.78234,0.29271 -1.31965,0.37599 -0.5373,0.0833 -1.02407,0.22444 -1.08172,0.31371 -0.24125,0.37356 -0.10075,0.97734 0.32695,1.40504 0.40802,0.40802 0.48656,0.43093 1.21794,0.35545 0.92737,-0.0957 3.44905,-1.36684 3.35356,-1.69047 -0.28533,-0.96705 -0.007,-1.69103 0.64929,-1.69103 0.36378,0 0.36972,0.0154 0.27679,0.71585 l -0.095,0.71585 0.54713,-0.0875 c 0.79732,-0.1275 0.94871,0.12064 0.8575,1.40554 -0.0797,1.12244 -0.0357,1.38753 0.23041,1.38753 0.22425,0 0.95388,-0.78073 1.34901,-1.44349 0.2975,-0.49899 0.30784,-0.66515 0.31097,-4.99326 0.005,-6.87152 0.26941,-9.20878 1.13579,-10.03883 0.31366,-0.3005 0.50737,-0.36888 0.94292,-0.33286 1.09467,0.0905 1.50502,1.42267 1.21076,3.93048 -0.23078,1.96674 -0.78327,4.35999 -1.51947,6.58193 -0.34756,1.04895 -0.63192,1.93334 -0.63192,1.9653 0,0.032 0.18941,-0.0398 0.42091,-0.15955 0.97631,-0.50487 2.39107,-0.0294 2.77615,0.93303 0.12479,0.31188 0.22689,0.68346 0.22689,0.82573 0,0.14226 0.0397,0.29833 0.0881,0.3468 0.16474,0.16474 1.46782,-0.43492 2.07561,-0.95516 0.79302,-0.6788 1.52428,-0.9001 2.29471,-0.69446 0.4663,0.12446 0.62209,0.11549 0.78268,-0.0451 0.25504,-0.25504 0.52761,-0.2554 0.73876,-10e-4 0.12004,0.14464 0.12759,0.43539 0.0275,1.05714 -0.1512,0.93883 -0.0896,1.39311 0.24078,1.77497 0.3415,0.39475 0.70883,0.2971 1.4239,-0.37852 l 0.66485,-0.62818 0.0572,-1.95651 c 0.0649,-2.2216 0.0737,-2.20273 -1.02306,-2.2062 -1.01049,-0.003 -0.79711,-0.33986 0.27266,-0.43018 l 0.84488,-0.0713 0.0937,-1.04955 c 0.0986,-1.10419 0.24124,-1.39803 0.61004,-1.2565 0.17103,0.0656 0.22359,0.3021 0.22359,1.00592 0,1.45204 -0.13452,1.37146 2.28948,1.37146 1.16395,0 2.15145,0.0569 2.19443,0.12645 0.12863,0.20812 -0.47285,0.29674 -2.12995,0.31382 -2.47286,0.0255 -2.2602,-0.19838 -2.40917,2.53598 -0.14509,2.66323 -0.0318,3.3806 0.55756,3.5285 0.44577,0.11188 1.33118,-0.39645 2.41351,-1.38564 0.44182,-0.40379 0.8383,-0.69918 0.88107,-0.65641 0.11536,0.11536 -1.93651,2.23222 -2.39201,2.46777 -0.61039,0.31565 -1.44526,0.26051 -1.79022,-0.11823 -0.39855,-0.43757 -0.61336,-0.88126 -0.61336,-1.26692 0,-0.31132 -0.0163,-0.30723 -0.46366,0.11616 -0.63289,0.59905 -0.98516,0.75843 -1.67631,0.75843 -0.78799,0 -1.08554,-0.18339 -1.28676,-0.79307 l -0.16829,-0.50994 -0.44946,0.64751 c -0.58904,0.8486 -1.15279,1.15111 -1.94676,1.04462 -0.85472,-0.11465 -1.07066,-0.38118 -1.07066,-1.32153 v -0.77491 c 0,0.003 -0.33908,0.12179 -0.75351,0.26494 -0.51447,0.17771 -0.90867,0.44155 -1.24259,0.83165 -0.63202,0.73837 -1.17112,0.95976 -2.03654,0.83631 -0.37141,-0.053 -0.88613,-0.0911 -1.14382,-0.0848 -0.39422,0.01 -0.49818,-0.059 -0.65547,-0.43309 l -0.18693,-0.44458 -0.18461,0.44568 c -0.27928,0.67426 -1.1047,1.28988 -1.72945,1.28988 -0.29317,0 -0.59979,-0.0953 -0.70172,-0.21813 z m 5.71001,-1.7115 c 0,-0.11568 -0.0555,-0.21034 -0.12342,-0.21034 -0.22742,0 -0.87894,0.59191 -0.79716,0.72423 0.11597,0.18764 0.92058,-0.26151 0.92058,-0.51389 z m 5.16965,0.1561 c 0.55839,-0.57496 1.29917,-1.9439 1.13873,-2.10435 -0.0613,-0.0613 -0.30633,-0.15037 -0.54461,-0.19802 -0.80309,-0.16062 -1.76916,1.0099 -1.76916,2.14358 0,0.82219 0.46918,0.88559 1.17504,0.15879 z m -5.63331,-0.85982 c 0.84574,-0.25298 0.89166,-0.2896 0.89166,-0.71091 0,-0.76776 -0.70787,-1.47519 -1.29094,-1.29013 -0.37816,0.12002 -0.66949,0.72122 -0.79011,1.63049 -0.0803,0.60553 -0.0612,0.73914 0.0991,0.69364 0.10924,-0.031 0.59986,-0.17639 1.09027,-0.32309 z m -10.15091,-1.36656 c 0.28458,-0.10819 0.34672,-0.19042 0.23122,-0.30592 -0.1155,-0.11551 -0.27595,-0.10909 -0.59695,0.0239 -0.85831,0.35552 -0.51794,0.61802 0.36573,0.28205 z m 9.76139,-7.35851 c 0.44331,-2.6251 0.37228,-5.47601 -0.13644,-5.47601 -0.1602,0 -0.40097,0.81398 -0.58687,1.98408 -0.1583,0.99639 -0.42425,5.8309 -0.40491,7.36046 l 0.0144,1.14131 0.40814,-1.62408 c 0.22448,-0.89324 0.54201,-2.41683 0.70564,-3.38576 z"
       style="fill:#51130e;stroke-width:0.539205;fill-opacity:1"
       id="path36" /><g
       id="g42"
       transform="matrix(0.17095353,0,0,0.17095353,324.16915,242.55619)"
       style="fill:#51130e;fill-opacity:1"><path
         style="fill:#51130e;fill-opacity:1"
         d="m -66.611403,190.37822 c 0.0127,-0.30822 0.07539,-0.37092 0.159853,-0.15985 0.07643,0.19099 0.06703,0.4192 -0.02089,0.50712 -0.08792,0.0879 -0.150452,-0.0684 -0.138963,-0.34727 z m -33.421447,-20.67029 c 0.329117,-0.0633 0.805367,-0.0609 1.058331,0.005 0.252965,0.0662 -0.01631,0.118 -0.598397,0.11507 -0.582084,-0.003 -0.789054,-0.0571 -0.459934,-0.12041 z"
         id="path37" /><path
         style="fill:#51130e;fill-opacity:1"
         d="m -66.611403,189.58447 c 0.0127,-0.30822 0.07539,-0.37092 0.159853,-0.15985 0.07643,0.19099 0.06703,0.4192 -0.02089,0.50712 -0.08792,0.0879 -0.150452,-0.0683 -0.138963,-0.34727 z m -31.569366,-19.87654 c 0.329119,-0.0633 0.805369,-0.0609 1.058334,0.005 0.252965,0.0662 -0.01631,0.118 -0.598398,0.11507 -0.582083,-0.003 -0.789054,-0.0571 -0.459936,-0.12041 z"
         id="path38" /><path
         style="fill:#51130e;fill-opacity:1"
         d="m -96.464062,169.71268 c 0.254662,-0.0666 0.67138,-0.0666 0.926042,0 0.254661,0.0666 0.0463,0.121 -0.463021,0.121 -0.509323,0 -0.717682,-0.0544 -0.463021,-0.121 z"
         id="path39" /><path
         style="fill:#51130e;fill-opacity:1"
         d="m -100.21349,214.4553 c 0.0127,-0.30822 0.0754,-0.37091 0.15986,-0.15985 0.07643,0.191 0.06703,0.4192 -0.0209,0.50712 -0.0879,0.0879 -0.15045,-0.0684 -0.13897,-0.34727 z m 29.480157,-8.84149 c 0.263389,-0.29104 0.538421,-0.52917 0.611181,-0.52917 0.07276,0 -0.08321,0.23813 -0.346597,0.52917 -0.263389,0.29104 -0.538421,0.52917 -0.611181,0.52917 -0.07276,0 0.08321,-0.23813 0.346597,-0.52917 z m -62.817657,-18.93976 c 0.0127,-0.30822 0.0754,-0.37092 0.15986,-0.15985 0.0764,0.191 0.067,0.4192 -0.0209,0.50712 -0.0879,0.0879 -0.15045,-0.0684 -0.13897,-0.34727 z m -2.64583,-0.52916 c 0.0127,-0.30823 0.0754,-0.37092 0.15985,-0.15986 0.0764,0.191 0.067,0.4192 -0.0209,0.50712 -0.0879,0.0879 -0.15046,-0.0684 -0.13897,-0.34726 z m 5.93224,-4.60816 c 0.26339,-0.29104 0.53842,-0.52917 0.61118,-0.52917 0.0728,0 -0.0832,0.23813 -0.3466,0.52917 -0.26339,0.29104 -0.53842,0.52916 -0.61118,0.52916 -0.0728,0 0.0832,-0.23812 0.3466,-0.52916 z m 37.918096,-10.23491 c 0.190996,-0.0764 0.4192,-0.067 0.507118,0.0209 0.08792,0.0879 -0.06835,0.15045 -0.347265,0.13896 -0.308225,-0.0127 -0.370919,-0.0754 -0.159853,-0.15985 z m 0.264584,-1.32292 c 0.190996,-0.0764 0.419199,-0.067 0.507118,0.0209 0.08792,0.0879 -0.06835,0.15045 -0.347266,0.13897 -0.308224,-0.0127 -0.370919,-0.0754 -0.159852,-0.15986 z"
         id="path40" /><path
         style="fill:#51130e;fill-opacity:1"
         d="m -103.89676,217.78465 c 0,-0.36381 0.0601,-0.51264 0.13345,-0.33073 0.0734,0.1819 0.0734,0.47955 0,0.66145 -0.0734,0.18191 -0.13345,0.0331 -0.13345,-0.33072 z m 7.56499,-46.7419 c 0.181901,-0.0734 0.479557,-0.0734 0.661458,0 0.181901,0.0734 0.03307,0.13345 -0.330729,0.13345 -0.363802,0 -0.51263,-0.06 -0.330729,-0.13345 z"
         id="path41" /><path
         style="fill:#51130e;fill-opacity:1"
         d="m -107.49541,240.74452 c -0.22654,-0.32342 -0.41188,-0.80058 -0.41188,-1.06035 0,-0.25977 0.9525,-5.33737 2.11667,-11.28355 1.16416,-5.94617 2.11666,-10.88635 2.11666,-10.97818 0,-0.0918 -0.46651,-0.16696 -1.03669,-0.16696 -1.27045,0 -1.87372,-0.21297 -1.87372,-0.66146 0,-0.41505 0.58853,-0.66146 1.57982,-0.66146 1.68958,0 1.5815,0.36586 5.041378,-17.06562 1.761898,-8.87677 3.376899,-16.40748 3.588891,-16.7349 0.457053,-0.70592 1.220791,-0.7683 1.8389,-0.15019 0.585587,0.58559 0.66767,0.0652 -2.804868,17.78279 -1.963646,10.01892 -2.836791,15.00817 -2.657839,15.18712 0.36482,0.36482 5.284043,-0.61614 9.81788,-1.95782 11.154596,-3.30094 18.218684,-8.31731 21.909725,-15.5586 3.842264,-7.53797 1.719943,-14.90261 -5.897366,-20.46439 -3.500251,-2.55571 -9.092913,-4.44469 -16.27765,-5.49796 -2.468053,-0.36181 -10.364251,-0.35792 -13.871261,0.007 -6.22177,0.6471 -13.11741,2.50558 -17.98998,4.84858 -3.83215,1.84271 -5.91589,3.26491 -8.17872,5.58217 -1.96982,2.0172 -2.75634,3.31112 -3.04465,5.00878 -0.1449,0.85327 -0.31507,1.11815 -0.75944,1.1821 -0.89696,0.12907 -1.66357,-0.83212 -1.66357,-2.08583 0,-1.46505 0.96316,-3.02335 3.10994,-5.03155 6.83254,-6.39151 19.40637,-10.5509 33.270264,-11.00573 17.342081,-0.56893 29.525279,4.27252 34.373519,13.6596 1.585888,3.07058 2.199054,6.29835 1.758791,9.25846 -0.311161,2.0921 -1.496655,5.13504 -2.971943,7.62842 -1.193555,2.01722 -4.395521,5.36489 -6.955921,7.27243 -5.155661,3.84107 -13.49241,6.86633 -23.161738,8.405 -1.964531,0.31262 -3.717752,0.70854 -3.896042,0.87984 -0.17828,0.1713 -1.2831,5.07266 -2.45513,10.89191 -2.27422,11.2917 -2.48806,12.17665 -3.11599,12.89555 -0.54278,0.62141 -1.00207,0.58308 -1.49804,-0.12502 z"
         id="path42" /></g><g
       id="g49"
       transform="matrix(0.17362172,0,0,0.17362172,321.86036,258.85642)"
       style="fill:#51130e;fill-opacity:1"><path
         style="fill:#51130e;fill-opacity:1"
         d="m -111.92806,95.336201 c 0.191,-0.07643 0.4192,-0.06703 0.50712,0.02089 0.0879,0.08792 -0.0683,0.150453 -0.34727,0.138964 -0.30822,-0.0127 -0.37091,-0.07539 -0.15985,-0.159852 z"
         id="path43" /><path
         style="fill:#51130e;fill-opacity:1"
         d="m -155.75751,116.15444 c 0,-0.3638 0.0601,-0.51263 0.13346,-0.33073 0.0734,0.1819 0.0734,0.47956 0,0.66146 -0.0734,0.1819 -0.13346,0.0331 -0.13346,-0.33073 z"
         id="path44" /><path
         style="fill:#51130e;fill-opacity:1"
         d="m -141.31026,125.7569 c 0.32912,-0.0633 0.80537,-0.0609 1.05833,0.005 0.25297,0.0662 -0.0163,0.118 -0.59839,0.11506 -0.58209,-0.003 -0.78906,-0.0571 -0.45994,-0.1204 z m 35.7322,-29.097783 c 0.191,-0.07643 0.4192,-0.06703 0.50712,0.02089 0.0879,0.08792 -0.0684,0.150452 -0.34727,0.138964 -0.30822,-0.0127 -0.37091,-0.07539 -0.15985,-0.159854 z m -5.02708,-1.322916 c 0.19099,-0.07643 0.4192,-0.06703 0.50712,0.02089 0.0879,0.08792 -0.0683,0.150453 -0.34727,0.138964 -0.30822,-0.0127 -0.37092,-0.07539 -0.15985,-0.159852 z"
         id="path45" /><path
         style="fill:#51130e;fill-opacity:1"
         d="m -152.3597,108.38163 c 0,-0.0549 0.20836,-0.2633 0.46302,-0.46302 0.41965,-0.32911 0.429,-0.31975 0.0999,0.0999 -0.34565,0.44073 -0.56292,0.58089 -0.56292,0.36313 z m 45.98789,-11.722513 c 0.191,-0.07643 0.4192,-0.06703 0.50712,0.02089 0.0879,0.08792 -0.0684,0.150452 -0.34727,0.138964 -0.30822,-0.0127 -0.37091,-0.07539 -0.15985,-0.159854 z m -3.43958,-1.322916 c 0.19099,-0.07643 0.4192,-0.06703 0.50712,0.02089 0.0879,0.08792 -0.0683,0.150453 -0.34727,0.138964 -0.30822,-0.0127 -0.37092,-0.07539 -0.15985,-0.159852 z m -5.04362,-49.471573 c 0.1819,-0.0734 0.47956,-0.0734 0.66146,0 0.1819,0.0734 0.0331,0.133452 -0.33073,0.133452 -0.3638,0 -0.51263,-0.06005 -0.33073,-0.133452 z"
         id="path46" /><path
         style="fill:#51130e;fill-opacity:1"
         d="m -112.93678,112.87955 c 0,-0.0549 0.20836,-0.2633 0.46302,-0.46302 0.41964,-0.32911 0.429,-0.31975 0.0999,0.0999 -0.34564,0.44073 -0.56291,0.58089 -0.56291,0.36313 z m -15.03948,-44.879276 c 0,-0.363802 0.0601,-0.51263 0.13346,-0.330729 0.0734,0.181901 0.0734,0.479557 0,0.661458 -0.0734,0.181901 -0.13346,0.03307 -0.13346,-0.330729 z m 12.34404,-22.141158 c 0.19099,-0.07643 0.41919,-0.06703 0.50711,0.02089 0.0879,0.08792 -0.0683,0.150453 -0.34726,0.138964 -0.30823,-0.0127 -0.37092,-0.07539 -0.15985,-0.159852 z"
         id="path47" /><path
         style="fill:#51130e;fill-opacity:1"
         d="m -139.05935,127.34817 c 0.25743,-0.0671 0.61462,-0.0627 0.79375,0.01 0.17913,0.0725 -0.0315,0.12736 -0.46806,0.12197 -0.43656,-0.005 -0.58312,-0.0647 -0.32569,-0.13178 z m 31.36463,-30.689053 c 0.19099,-0.07643 0.41919,-0.06703 0.50711,0.02089 0.0879,0.08792 -0.0683,0.150452 -0.34726,0.138964 -0.30823,-0.0127 -0.37092,-0.07539 -0.15985,-0.159854 z m -0.79375,-1.322916 c 0.19099,-0.07643 0.41919,-0.06703 0.50711,0.02089 0.0879,0.08792 -0.0684,0.150453 -0.34726,0.138964 -0.30823,-0.0127 -0.37092,-0.07539 -0.15985,-0.159852 z m 2.27342,-11.527072 -0.50402,-0.595313 0.59531,0.504028 c 0.55945,0.473662 0.71576,0.686597 0.50403,0.686597 -0.0502,0 -0.3181,-0.267891 -0.59532,-0.595312 z m 5.71368,-25.681229 c 0,-0.04553 0.38696,-0.432488 0.8599,-0.859896 l 0.859896,-0.777105 -0.777105,0.859895 c -0.724371,0.801544 -0.942691,0.981512 -0.942691,0.777106 z m -16.99947,-12.274769 c 0.32742,-0.06306 0.8632,-0.06306 1.19062,0 0.32742,0.06307 0.0595,0.114663 -0.59531,0.114663 -0.65485,0 -0.92274,-0.0516 -0.59531,-0.114663 z"
         id="path48" /><path
         style="fill:#51130e;fill-opacity:1"
         d="m -144.95772,126.76258 c -4.47301,-0.96607 -8.04786,-3.47039 -9.66638,-6.77168 -0.68611,-1.39944 -0.77831,-1.86959 -0.77831,-3.96875 0,-2.11602 0.0917,-2.5747 0.82302,-4.11808 4.26251,-8.9953 21.52242,-15.320558 44.81761,-16.424361 3.41974,-0.162039 6.2696,-0.341299 6.33303,-0.398355 0.27024,-0.2431 -0.0543,-2.703225 -0.55158,-4.181096 -2.16816,-6.443574 -10.38895,-12.271635 -21.86178,-15.498733 -1.49538,-0.420623 -2.88675,-0.700349 -3.09193,-0.621613 -0.44365,0.170241 -0.91004,2.127948 -2.9201,12.257301 -0.82157,4.14016 -1.60842,7.7418 -1.74855,8.003646 -0.14014,0.261845 -0.53368,0.476082 -0.87455,0.476082 -1.37348,0 -1.36351,-0.163271 0.63769,-10.447525 1.03712,-5.3298 1.84851,-9.951746 1.80308,-10.27099 -0.0637,-0.44729 -0.42733,-0.692459 -1.58535,-1.068744 -1.49921,-0.487153 -1.91679,-0.895699 -1.64348,-1.607931 0.14474,-0.377206 0.74443,-0.710696 3.07231,-1.708542 0.8533,-0.365767 1.29101,-0.727298 1.38409,-1.143207 0.0749,-0.334548 0.79971,-3.94202 1.61075,-8.016603 1.8382,-9.234939 1.80596,-9.128126 2.75574,-9.128126 1.40026,0 1.42247,0.316023 0.40212,5.721659 -0.51846,2.746682 -1.18144,6.17267 -1.47329,7.613308 -0.29185,1.440638 -0.47022,2.776765 -0.39639,2.96917 0.15543,0.405057 2.71176,-0.463754 9.40499,-3.196439 9.08012,-3.707201 13.67272,-6.151333 16.18898,-8.615617 1.81181,-1.774387 2.12343,-2.446362 1.76535,-3.806844 -0.26174,-0.994444 -1.07597,-1.866606 -2.75885,-2.955149 -2.78992,-1.804613 -7.22465,-2.757728 -12.80228,-2.751479 -9.762,0.01094 -17.75547,2.770639 -20.39482,7.041197 -0.7136,1.154632 -1.39435,1.530045 -2.09477,1.155195 -0.95055,-0.508721 -0.65897,-1.50661 0.87897,-3.008118 2.30401,-2.249435 6.29389,-4.061752 11.82103,-5.369452 3.86174,-0.913671 11.74726,-1.162397 15.9442,-0.502914 7.07757,1.112131 12.101638,4.137931 12.101638,7.288342 0,3.067476 -4.245248,6.375609 -13.626038,10.618183 -2.47386,1.118829 -6.64105,2.826885 -9.26042,3.795679 -7.09374,2.623672 -7.53525,2.813443 -7.83094,3.365942 -0.14964,0.279612 -0.23484,0.768084 -0.18932,1.085494 0.0719,0.501462 0.59517,0.724645 3.99193,1.702662 10.84697,3.123127 18.79893,8.122887 22.08737,13.887321 1.06071,1.859374 1.917,4.408457 1.917,5.706719 0,0.983612 0.48323,1.646809 1.199935,1.646809 0.961159,0 0.826543,0.839555 -0.21212,1.322917 -0.748735,0.348437 -0.911085,0.621965 -1.330225,2.241126 -1.05654,4.081446 -3.12506,7.753246 -6.79646,12.064286 -6.62954,7.78457 -14.85154,12.95648 -24.40719,15.35294 -3.18035,0.7976 -9.55932,0.93095 -12.64571,0.26437 z m 9.92823,-1.44976 c 4.9743,-1.06262 10.91456,-3.63569 15.39393,-6.66799 7.05485,-4.77577 13.41099,-12.52687 15.65769,-19.094046 0.68107,-1.99079 0.68277,-2.027276 0.12099,-2.589063 -0.39177,-0.391771 -0.87523,-0.424134 -4.0349,-0.270102 -19.12243,0.932207 -33.77836,5.526411 -40.38151,12.658421 -2.31847,2.50417 -3.34746,4.64652 -3.49882,7.28453 -0.22736,3.96259 0.88284,5.87722 4.43949,7.65627 1.23693,0.61871 2.90381,1.23804 3.70417,1.37629 1.89221,0.32685 6.25108,0.14725 8.59896,-0.35431 z"
         id="path49" /></g></g></svg>
