<?xml version="1.0" encoding="UTF-8" standalone="no"?>
<!-- Created with Inkscape (http://www.inkscape.org/) -->

<svg
   width="86.35128mm"
   height="34.5741mm"
   viewBox="0 0 86.35128 34.5741"
   version="1.1"
   id="svg1"
   xml:space="preserve"
   xmlns="http://www.w3.org/2000/svg"
   xmlns:svg="http://www.w3.org/2000/svg"><defs
     id="defs1" /><g
     id="layer1"
     transform="translate(-429.73613,-240.59168)"><path
       style="fill:#000000;stroke-width:0.286327"
       d="m 470.08046,275.11133 c -0.79736,-0.20939 -1.18956,-0.75575 -0.91861,-1.27973 0.0647,-0.12502 0.17273,-0.24847 0.24018,-0.27435 0.20666,-0.0793 0.52837,-0.0525 0.67734,0.0565 0.12502,0.0914 0.13032,0.13051 0.0454,0.33534 -0.0528,0.12751 -0.0735,0.30292 -0.0459,0.38978 0.10928,0.34433 0.83626,0.49576 1.34982,0.28118 0.53731,-0.22451 0.92695,-0.95456 1.10254,-2.06588 l 0.0613,-0.38795 -0.39103,0.40051 c -0.4573,0.4684 -0.83153,0.60847 -1.32774,0.49698 -0.17346,-0.039 -0.39797,-0.14846 -0.49893,-0.24329 -0.38313,-0.35992 -0.5237,-1.48596 -0.29509,-2.36367 0.16788,-0.6445 0.43307,-1.11204 0.85428,-1.50602 0.54398,-0.50883 1.11873,-0.63353 1.87328,-0.40645 0.31837,0.0958 0.38452,0.0958 0.52131,0 0.19235,-0.13473 0.65328,-0.1466 0.65328,-0.0169 0,0.18024 -0.61619,3.89074 -0.72557,4.36915 -0.24211,1.05897 -0.72749,1.74855 -1.4583,2.07182 -0.36683,0.16227 -1.33673,0.24301 -1.71765,0.143 z m 1.7872,-2.71707 c 0.55405,-0.46619 0.90827,-1.3028 1.07729,-2.54432 l 0.10124,-0.74358 -0.21017,-0.1087 c -0.28607,-0.14793 -0.7431,-0.1359 -0.98865,0.0261 -0.81404,0.53686 -1.30625,2.4072 -0.86038,3.26939 0.19085,0.36906 0.51767,0.40659 0.88069,0.10112 z m 11.41352,2.70078 c -0.19905,-0.11592 -0.17416,-0.4287 0.25077,-3.15239 0.21085,-1.35145 0.37278,-2.54878 0.35986,-2.66074 -0.0202,-0.17422 -0.0633,-0.20684 -0.29984,-0.22658 -0.19487,-0.0163 -0.28732,-0.065 -0.31362,-0.16557 -0.045,-0.172 0.37826,-0.3661 0.94435,-0.43315 0.49414,-0.0585 0.57584,0.0246 0.53294,0.54184 l -0.0344,0.41487 0.44474,-0.44463 c 0.32453,-0.32446 0.52153,-0.45901 0.72883,-0.49787 0.60021,-0.11243 1.1016,0.12812 1.31091,0.62906 0.18241,0.43657 0.21846,1.26771 0.0804,1.85418 -0.38209,1.62328 -1.41226,2.42042 -2.68524,2.0778 -0.29062,-0.0783 -0.41211,-0.0848 -0.43352,-0.0236 -0.0602,0.1724 -0.18431,1.07848 -0.18487,1.34995 l -5.7e-4,0.27994 0.35918,0.023 c 0.26563,0.0171 0.36549,0.0566 0.38349,0.15133 0.0466,0.24551 -1.11617,0.47299 -1.44343,0.28236 z m 2.22067,-2.58965 c 0.58143,-0.39184 0.98588,-1.35116 0.98807,-2.34361 0.003,-0.81668 -0.15651,-1.14955 -0.56261,-1.18298 -0.24636,-0.0202 -0.32534,0.0142 -0.53031,0.23218 -0.51864,0.55133 -1.00763,1.85104 -1.052,2.79621 -0.0205,0.43744 -0.008,0.47913 0.16724,0.5697 0.29182,0.15059 0.70426,0.12078 0.98961,-0.0715 z m -30.40764,0.51528 c -0.17587,-0.17587 -0.16196,-0.44152 0.10415,-1.98951 0.12735,-0.7407 0.21218,-1.44675 0.18849,-1.56903 -0.13053,-0.67394 -0.82489,-0.65115 -1.32816,0.0437 -0.33653,0.46456 -0.52561,1.04372 -0.75855,2.3234 -0.11615,0.63793 -0.22803,1.17678 -0.2487,1.19744 -0.0206,0.0207 -0.2057,0.0271 -0.41121,0.0144 l -0.37366,-0.0232 0.43884,-2.72727 c 0.24136,-1.49998 0.43983,-2.85391 0.44103,-3.00868 0.002,-0.30917 -0.14053,-0.43828 -0.48524,-0.43828 -0.15451,0 -0.19437,-0.0372 -0.19437,-0.18128 0,-0.22746 0.0926,-0.26203 0.86008,-0.32102 0.88226,-0.0678 0.86276,-0.11967 0.58189,1.54754 -0.12642,0.7504 -0.22986,1.40656 -0.22986,1.45811 0,0.0516 0.14358,-0.0694 0.31903,-0.26871 0.68116,-0.77384 1.68707,-0.85744 2.10326,-0.1748 0.20326,0.33338 0.19446,0.57125 -0.0767,2.07231 -0.12657,0.70071 -0.21141,1.32282 -0.18852,1.38243 0.0419,0.10928 0.30862,0.10043 0.58909,-0.0196 0.10485,-0.0447 0.13255,-0.0194 0.13245,0.12185 -3.3e-4,0.40291 -1.17215,0.85152 -1.46343,0.56025 z m 3.26593,0.0404 c -0.65975,-0.21345 -0.96903,-0.7383 -0.96903,-1.64438 0,-1.24689 0.53913,-2.31592 1.40149,-2.77902 0.44631,-0.23965 1.40328,-0.2349 1.79542,0.008 0.43557,0.27084 0.61166,0.62203 0.65078,1.2979 0.0763,1.31877 -0.47731,2.50848 -1.3856,2.97741 -0.3347,0.17279 -1.15329,0.2491 -1.49306,0.13915 z m 1.28013,-0.79962 c 0.45558,-0.49762 0.64677,-1.04735 0.68789,-1.97788 0.0367,-0.82957 -0.0542,-1.15446 -0.37008,-1.3235 -0.44153,-0.2363 -1.11511,0.29223 -1.43998,1.12991 -0.20496,0.52849 -0.28742,1.78165 -0.14055,2.13619 0.23636,0.57066 0.75919,0.58525 1.26272,0.0353 z m 2.90232,0.77194 c -0.10415,-0.0528 -0.23838,-0.19708 -0.29825,-0.32086 -0.0976,-0.20189 -0.0866,-0.37716 0.10741,-1.70233 0.11892,-0.81249 0.2313,-1.58806 0.24972,-1.72348 l 0.0335,-0.24621 h -0.34676 c -0.32536,0 -0.34294,-0.0105 -0.28513,-0.16655 0.0339,-0.0916 0.16063,-0.19822 0.28164,-0.23695 0.33696,-0.10777 0.69411,-0.40556 0.88285,-0.73607 0.13,-0.22769 0.21761,-0.29879 0.36868,-0.29923 0.19245,-5.7e-4 0.19637,0.008 0.13587,0.32138 -0.11983,0.61947 -0.15826,0.58713 0.69753,0.58713 0.75783,0 0.76589,0.003 0.72073,0.17044 -0.0252,0.0938 -0.0461,0.21307 -0.0467,0.26516 -7.7e-4,0.0696 -0.20904,0.0947 -0.78577,0.0947 h -0.78474 l -0.1981,1.26895 c -0.30753,1.96994 -0.31139,2.01802 -0.17128,2.13429 0.16752,0.13904 0.56278,0.0635 0.95158,-0.18201 0.25109,-0.1585 0.33927,-0.18143 0.4248,-0.11044 0.18439,0.15305 0.12167,0.2737 -0.27431,0.5278 -0.67543,0.43343 -1.26041,0.55804 -1.6632,0.3543 z m 3.67423,-0.0158 c -0.73118,-0.25852 -1.0463,-1.00723 -0.88621,-2.10559 0.17261,-1.18425 0.81338,-2.12155 1.61265,-2.35891 1.1055,-0.32829 1.98049,0.0888 2.19474,1.04623 0.21597,0.96498 -0.23732,2.4432 -0.93136,3.03727 -0.52963,0.45335 -1.34414,0.60931 -1.98982,0.381 z m 1.07651,-0.48956 c 0.55732,-0.33983 0.9487,-1.28205 0.96088,-2.31328 0.009,-0.79828 -0.0972,-1.121 -0.41364,-1.25207 -0.45407,-0.1881 -0.93019,0.133 -1.27539,0.86016 -0.77439,1.63118 -0.31422,3.34075 0.72815,2.70519 z m 11.60921,0.43267 c -0.4023,-0.27113 -0.55071,-0.60034 -0.58607,-1.30006 -0.057,-1.1263 0.29037,-2.1097 0.9566,-2.70869 0.56993,-0.51241 1.12285,-0.62937 1.89345,-0.40053 0.35514,0.10544 0.41034,0.10544 0.56091,0 0.22334,-0.15642 0.58784,-0.15504 0.58784,0.003 0,0.0656 -0.13713,0.93691 -0.30473,1.9363 -0.16759,0.9994 -0.28288,1.85242 -0.25618,1.89562 0.0486,0.0786 0.33862,0.0566 0.56989,-0.0432 0.0859,-0.0371 0.13481,-0.006 0.16334,0.10288 0.0452,0.17285 -0.19181,0.37984 -0.65792,0.57459 -0.63142,0.26382 -1.00116,0.0541 -0.93527,-0.53058 l 0.0387,-0.34287 -0.30974,0.35189 c -0.53735,0.61046 -1.22637,0.79563 -1.72077,0.46246 z m 1.29274,-0.56165 c 0.50343,-0.4236 0.88712,-1.32839 1.09048,-2.57153 0.1,-0.6108 0.0988,-0.68208 -0.0117,-0.76711 -0.16505,-0.12716 -0.58242,-0.19869 -0.81645,-0.13996 -0.54859,0.13768 -1.09156,0.99632 -1.24964,1.97611 -0.21622,1.3402 0.28085,2.09678 0.98713,1.50249 z m 10.80792,0.62161 c -0.17588,-0.17587 -0.16197,-0.44152 0.10415,-1.98949 0.12734,-0.74069 0.21217,-1.44677 0.18848,-1.56904 -0.13052,-0.67393 -0.82489,-0.65115 -1.32815,0.0435 -0.33655,0.46458 -0.52563,1.04374 -0.75857,2.32343 -0.11616,0.63792 -0.22803,1.17678 -0.24868,1.19743 -0.0206,0.0206 -0.20571,0.027 -0.41121,0.0144 l -0.37366,-0.0232 0.43882,-2.72726 c 0.24137,-1.5 0.43982,-2.85391 0.44104,-3.00869 0.003,-0.30916 -0.14053,-0.43826 -0.48523,-0.43826 -0.15452,0 -0.19438,-0.0373 -0.19438,-0.1813 0,-0.22744 0.0926,-0.26203 0.86007,-0.321 0.88228,-0.0678 0.86278,-0.11969 0.5819,1.54752 -0.12642,0.75041 -0.22986,1.40656 -0.22986,1.45811 0,0.0516 0.14356,-0.0694 0.31904,-0.26871 0.68116,-0.77383 1.68706,-0.85744 2.10325,-0.1748 0.20327,0.33339 0.19446,0.57126 -0.0766,2.07231 -0.12656,0.70073 -0.21141,1.32282 -0.18852,1.38245 0.0419,0.10928 0.30862,0.10042 0.58909,-0.0196 0.10485,-0.0447 0.13254,-0.0193 0.13244,0.12186 -2.8e-4,0.4029 -1.17214,0.85152 -1.46342,0.56024 z m 3.17984,0.004 c -0.69172,-0.25834 -0.92212,-0.75027 -0.86405,-1.8448 0.053,-0.99894 0.25415,-1.50941 0.81888,-2.07824 0.50851,-0.51221 1.04406,-0.71424 1.7109,-0.64542 0.71623,0.0739 1.08791,0.4326 1.08739,1.04936 -5.8e-4,0.79992 -0.84109,1.41832 -2.17777,1.60246 l -0.62499,0.0861 2.9e-4,0.22943 c 2.5e-4,0.12619 0.0372,0.36163 0.0821,0.5232 0.20035,0.72155 0.78489,0.85663 1.64977,0.38125 0.46463,-0.25541 0.50075,-0.26374 0.5934,-0.13704 0.14019,0.19172 0.12804,0.22758 -0.14755,0.43556 -0.5708,0.43074 -1.55045,0.61401 -2.12839,0.39815 z m 1.02518,-2.51778 c 0.50006,-0.15905 0.89488,-0.60608 0.89488,-1.01321 0,-0.74998 -0.864,-0.82488 -1.40054,-0.12143 -0.19639,0.25747 -0.4934,0.99482 -0.4934,1.22489 0,0.10101 0.0557,0.11359 0.32198,0.0724 0.17708,-0.0274 0.48176,-0.10054 0.67708,-0.16268 z m -20.36356,2.33926 c 0.16336,-0.8218 0.50433,-3.27651 0.48581,-3.49739 -0.0214,-0.25516 -0.0402,-0.27297 -0.31148,-0.29532 -0.24671,-0.0204 -0.28529,-0.0475 -0.26515,-0.18702 0.0418,-0.2895 1.29102,-0.57441 1.48395,-0.33844 0.0501,0.0614 0.0542,0.24025 0.0117,0.50726 -0.0774,0.48432 -0.0484,0.55411 0.10695,0.25734 0.12773,-0.24395 0.53605,-0.64754 0.78357,-0.77445 0.27515,-0.14107 0.53872,-0.0966 0.79753,0.13468 0.20338,0.18172 0.24567,0.27441 0.24567,0.53833 0,0.47534 -0.41205,0.79351 -0.8233,0.63569 -0.0925,-0.0355 -0.10893,-0.11207 -0.0725,-0.33964 0.0374,-0.2341 0.021,-0.30379 -0.081,-0.34291 -0.53528,-0.20541 -1.13532,0.97039 -1.36911,2.68272 -0.1836,1.34492 -0.12498,1.22749 -0.61269,1.22749 -0.41908,0 -0.42103,-8.5e-4 -0.37983,-0.20834 z m 22.74117,0.0758 c 0.016,-0.073 0.15013,-0.92909 0.29802,-1.9026 0.29558,-1.94567 0.29269,-1.97998 -0.1665,-1.97998 -0.22649,0 -0.25794,-0.0223 -0.23694,-0.16806 0.0437,-0.30292 1.28915,-0.58016 1.49454,-0.33269 0.0623,0.0749 0.0674,0.23348 0.0183,0.54925 -0.0662,0.42557 -0.0641,0.43617 0.0544,0.25633 0.36538,-0.55469 0.81078,-0.91088 1.13896,-0.91088 0.41169,0 0.76491,0.36828 0.76491,0.79751 0,0.25744 -0.3795,0.64187 -0.63363,0.64187 -0.23287,0 -0.30009,-0.0982 -0.30759,-0.44969 -0.008,-0.36213 -0.25852,-0.41049 -0.54282,-0.10462 -0.46436,0.4995 -0.76124,1.41854 -0.94563,2.92724 l -0.0989,0.80894 h -0.43318 c -0.37314,0 -0.42913,-0.0184 -0.40404,-0.13258 z m -50.57348,-0.0931 c 0,-0.10251 0.0659,-0.16399 0.20832,-0.19402 0.11453,-0.0242 0.31061,-0.0885 0.43561,-0.14289 l 0.22728,-0.0989 0.40664,-2.54581 c 0.22366,-1.40019 0.38673,-2.59774 0.36238,-2.6612 -0.0243,-0.0635 -0.19883,-0.15672 -0.38772,-0.20724 -0.28082,-0.075 -0.34343,-0.12352 -0.34343,-0.26553 v -0.17369 h 1.35991 c 1.84733,0 2.33018,0.1235 2.7619,0.7064 0.24003,0.32408 0.21744,1.15688 -0.0469,1.73153 -0.34248,0.74434 -1.02186,1.09754 -2.26318,1.17659 l -0.65047,0.0415 -0.16876,1.09647 c -0.0928,0.60308 -0.15009,1.11514 -0.12726,1.13797 0.0228,0.0228 0.20396,0.0826 0.40256,0.13275 0.275,0.0696 0.36684,0.13 0.38528,0.25375 0.024,0.16073 0.0105,0.16248 -1.26895,0.16248 -1.23849,0 -1.29314,-0.006 -1.29314,-0.15007 z m 3.19252,-3.19541 c 0.72842,-0.21825 1.17064,-0.90536 1.11124,-1.72662 -0.0391,-0.54205 -0.23028,-0.79502 -0.69497,-0.92015 -0.32195,-0.0867 -0.92353,-0.0327 -0.99915,0.0897 -0.0532,0.0861 -0.40828,2.22451 -0.4109,2.47461 -0.001,0.1525 0.0352,0.17047 0.34927,0.17047 0.19309,0 0.48312,-0.0396 0.64451,-0.088 z"
       id="path116" /><path
       d="m 482.49388,267.72212 c -0.0167,-0.0196 -0.0649,-1.99374 -0.107,-4.38694 l -0.0766,-4.35127 -0.53499,-0.0443 c -0.65209,-0.054 -0.72177,-0.39136 -0.10864,-0.52602 0.2345,-0.0515 0.47525,-0.16895 0.53499,-0.261 0.0598,-0.092 0.14074,-3.02421 0.17997,-6.51593 l 0.0713,-6.34858 h 0.428 0.42799 l 0.0372,6.129 c 0.0205,3.37096 0.0914,6.18319 0.15762,6.2494 0.16777,0.16777 2.92156,-1.06301 4.4918,-2.00756 1.36378,-0.82036 3.16164,-2.20942 3.62954,-2.80427 0.24593,-0.31265 0.28209,-0.694 0.36171,-3.81431 0.0486,-1.90681 0.17516,-3.937 0.28114,-4.51153 l 0.19269,-1.0446 -0.498,-0.41049 c -2.75518,-2.27104 -8.04382,-2.57359 -13.53638,-0.77436 -2.99486,0.98105 -5.60087,2.47644 -7.31517,4.19764 -1.10882,1.11329 -1.85464,2.428 -1.85464,3.26932 0,0.62583 -0.17478,0.73192 -0.7227,0.43867 -0.37397,-0.20014 -0.36333,-1.00837 0.0238,-1.80806 0.16486,-0.34055 0.78234,-1.13218 1.37218,-1.75919 2.20201,-2.34074 5.75406,-4.2389 9.83088,-5.25344 2.61743,-0.65136 3.65563,-0.78749 6.04495,-0.79257 3.05448,-0.006 4.71267,0.41278 6.51516,1.64737 0.44248,0.30305 0.69881,0.3864 1.00194,0.32578 0.54516,-0.10903 0.85838,0.25294 1.03787,1.19939 0.0771,0.40644 0.23845,0.92907 0.3586,1.16142 0.38734,0.74903 0.66086,2.24074 0.55783,3.04229 -0.13296,1.03446 -0.65226,2.5203 -1.18139,3.38024 -0.37311,0.60639 -0.50343,1.07664 -0.80119,2.891 -0.19558,1.19176 -0.3556,2.4551 -0.3556,2.80745 v 0.64061 l 0.46367,-0.77356 c 0.53787,-0.89738 1.23922,-1.42511 1.89393,-1.42511 0.65667,0 0.83948,0.31359 0.9342,1.60252 0.0859,1.16859 0.20691,1.38624 0.77415,1.39193 0.17458,0.002 0.71164,-0.44944 1.38366,-1.16246 1.06817,-1.13331 1.1191,-1.16704 1.85486,-1.22805 1.0366,-0.086 1.32168,0.22132 1.33959,1.44391 0.0157,1.07162 0.23871,1.18465 0.97352,0.49342 l 0.50244,-0.47264 0.0959,-1.74455 c 0.11354,-2.06442 0.0636,-2.17872 -0.95181,-2.17872 -0.69697,0 -1.03122,-0.18409 -0.62045,-0.34172 0.12366,-0.0474 0.53372,-0.0863 0.91123,-0.0863 0.79488,0 0.85959,-0.0901 0.85959,-1.19705 0,-0.82587 0.25817,-1.32394 0.61523,-1.18692 0.17712,0.068 0.2379,0.33786 0.2703,1.20016 l 0.0418,1.11248 2.06864,0.0371 c 1.13775,0.0204 2.15807,0.0701 2.26738,0.11036 0.48154,0.17738 -0.15063,0.28545 -2.05813,0.35183 -1.20322,0.0418 -2.11471,0.13609 -2.20661,0.22811 -0.0955,0.0956 -0.18543,1.12587 -0.23046,2.6393 -0.0797,2.67839 0.0106,3.15287 0.61675,3.24016 0.69572,0.10019 2.5661,-1.33772 3.07844,-2.36665 0.42685,-0.85725 1.08742,-1.31563 1.89599,-1.31563 0.85985,0 1.2019,0.45211 1.2019,1.58856 0,0.89908 0.0653,0.95788 0.69923,0.63004 0.57446,-0.29706 0.91735,-0.86507 0.73166,-1.21201 -0.22244,-0.41564 -0.17869,-0.68052 0.16533,-1.00103 0.50138,-0.46711 1.68507,-0.33959 1.68507,0.18152 0,0.0715 -0.21969,0.0888 -0.4882,0.0385 -0.28065,-0.0526 -0.52642,-0.0298 -0.5781,0.0539 -0.10922,0.17672 0.24373,0.92906 0.69461,1.48065 l 0.33081,0.4047 0.88816,-0.44834 c 1.19682,-0.60416 1.43188,-0.46813 0.35523,0.20556 l -0.86612,0.54197 0.0621,0.74903 c 0.0516,0.62307 0.0114,0.79978 -0.23953,1.05069 -0.67236,0.67236 -2.15038,0.11154 -1.93783,-0.7353 0.0539,-0.2148 0.29378,-0.55527 0.53305,-0.7566 l 0.43503,-0.36606 -0.35467,-0.35466 -0.35466,-0.35467 -0.57848,0.57847 c -0.37757,0.37758 -0.70646,0.57848 -0.94696,0.57848 -0.20786,0 -0.58593,0.19093 -0.86732,0.438 -1.19954,1.0532 -2.27623,0.799 -2.71854,-0.64186 -0.0742,-0.24155 -0.17543,-0.18738 -0.82815,0.44291 -1.0319,0.99643 -1.36027,1.1876 -2.03994,1.1876 -0.7589,0 -1.25476,-0.47182 -1.49953,-1.42684 l -0.17854,-0.69666 -0.41408,0.34843 c -0.23288,0.19596 -0.59699,0.34842 -0.83207,0.34842 -0.26712,0 -0.529,0.12767 -0.72554,0.35371 -0.42831,0.4926 -1.38551,0.84148 -1.83614,0.66922 -0.47618,-0.18202 -0.80212,-0.57291 -0.94636,-1.13496 l -0.12029,-0.46868 -0.48012,0.35422 c -1.3148,0.97003 -2.1586,0.54019 -2.38215,-1.21351 -0.13195,-1.03506 -0.2953,-1.34716 -0.58101,-1.11004 -0.30696,0.25476 -0.95307,1.59474 -1.33275,2.76404 -0.39601,1.21954 -0.5166,1.38159 -0.98741,1.32686 l -0.36888,-0.0429 -0.0384,-3.16578 -0.0384,-3.16577 -1.17427,0.84233 c -1.33746,0.95938 -3.99094,2.3159 -5.8822,3.00711 -0.70619,0.25809 -1.33115,0.53695 -1.3888,0.61969 -0.0576,0.0827 -0.1058,2.08721 -0.107,4.45438 -0.001,2.36716 -0.0411,4.40548 -0.0888,4.5296 -0.0701,0.18263 -0.68212,0.32803 -0.7998,0.19 z m 31.2153,-7.88191 c 0.0492,-0.19598 0.0497,-0.46001 0.001,-0.58672 -0.12367,-0.32227 -0.51302,0.01 -0.51302,0.43744 0,0.58942 0.37414,0.69851 0.51199,0.14928 z m -13.85885,-0.44509 c 0.12629,-0.0485 0.29597,-0.21207 0.37705,-0.36357 0.11964,-0.22355 0.0651,-0.36916 -0.2893,-0.77283 -0.24019,-0.27356 -0.43671,-0.56314 -0.43671,-0.64351 0,-0.0804 -0.0605,-0.10873 -0.13442,-0.063 -0.22313,0.1379 -0.33682,1.29835 -0.15964,1.62942 0.17133,0.32012 0.27528,0.35464 0.64302,0.21353 z m 9.5738,-0.20556 c 0.2178,-0.24067 0.23408,-0.33724 0.0902,-0.535 -0.0966,-0.13272 -0.31177,-0.45485 -0.47818,-0.71586 -0.22502,-0.35292 -0.33331,-0.42605 -0.42253,-0.28533 -0.14256,0.22487 -0.16569,1.59828 -0.0292,1.73476 0.18451,0.1845 0.57709,0.0917 0.83977,-0.19857 z m -8.64096,-1.74771 c -10e-4,-0.25039 -0.0654,-0.55155 -0.14267,-0.66924 -0.12486,-0.19022 -0.15608,-0.19022 -0.28095,0 -0.18397,0.28024 -0.17989,0.48033 0.0187,0.91613 0.20927,0.45932 0.40775,0.33831 0.40495,-0.24689 z m 9.21805,-0.61291 c -0.042,-0.10945 -0.14258,-0.199 -0.22351,-0.199 -0.2089,0 -0.18305,1.04801 0.0312,1.26425 0.14301,0.14434 0.18727,0.0764 0.2235,-0.34313 0.0249,-0.28772 0.0108,-0.61267 -0.0312,-0.72212 z m -16.96794,-3.80128 c -0.0396,-0.0981 -0.072,-0.0179 -0.072,0.17833 0,0.19617 0.0324,0.27641 0.072,0.17833 0.0396,-0.0981 0.0396,-0.25858 0,-0.35666 z m 0.47855,-3.47014 c 0.26953,-1.64811 0.33865,-3.86187 0.13587,-4.35143 -0.16434,-0.39675 -0.20201,-0.42073 -0.28948,-0.18428 -0.0553,0.14951 -0.1469,1.49037 -0.20355,2.97969 -0.0764,2.00855 -0.0614,2.6683 0.058,2.55468 0.0885,-0.0842 0.22317,-0.53365 0.29921,-0.99866 z"
       style="fill:#000000;stroke-width:0.539205"
       id="path117" /><path
       d="m 433.49098,274.01444 c -1.55503,-0.23525 -2.67192,-0.95529 -3.32524,-2.14375 -1.53269,-2.78807 1.10309,-6.25284 6.83654,-8.98676 2.18628,-1.0425 6.26927,-2.43858 8.52453,-2.91474 0.95905,-0.20249 1.76894,-0.39338 1.79975,-0.42419 0.12403,-0.12404 -0.31309,-1.18765 -0.76454,-1.86027 -1.1389,-1.69684 -3.93957,-3.06021 -7.33918,-3.5727 -1.19705,-0.18046 -2.65664,-0.2712 -2.74111,-0.17042 -0.0164,0.0196 -0.0646,1.80114 -0.107,3.95895 l -0.0771,3.92327 h -0.35666 -0.35667 l -0.0771,-3.92327 c -0.0424,-2.15781 -0.0906,-3.93564 -0.10699,-3.95074 -0.0164,-0.0151 -0.30274,-0.0472 -0.63622,-0.0713 -0.9025,-0.0653 -0.89202,-0.46492 0.0303,-1.15346 l 0.71872,-0.53658 v -3.35933 -3.35933 l 0.39233,0.0451 0.39233,0.0451 0.0713,2.94878 c 0.0392,1.62182 0.10652,2.98378 0.14952,3.02658 0.0945,0.0941 3.69733,-2.14193 5.307,-3.29373 1.63896,-1.17276 3.30837,-2.83703 3.52841,-3.51754 0.15843,-0.48999 0.14741,-0.59161 -0.10017,-0.92322 -0.15302,-0.20495 -0.59366,-0.53497 -0.9792,-0.7334 -0.64523,-0.33206 -0.84855,-0.36053 -2.55564,-0.35786 -2.1203,0.003 -3.54739,0.30704 -5.63525,1.19934 -2.21756,0.94774 -2.92684,1.54692 -3.88098,3.27861 -0.25867,0.46947 -0.6396,0.58086 -0.77548,0.22676 -0.36558,-0.95267 1.59195,-2.74813 4.19149,-3.84448 2.76682,-1.1669 6.65223,-1.69415 8.52986,-1.15751 1.10266,0.31514 1.87319,0.82509 2.16206,1.43086 0.22271,0.46702 0.21734,0.51176 -0.15204,1.26673 -0.68215,1.39428 -3.32889,3.54013 -7.52556,6.10138 -1.15219,0.70319 -2.13093,1.37245 -2.17498,1.48723 -0.10795,0.28131 0.0415,0.63669 0.26777,0.63669 0.66367,0 3.31717,0.32655 4.20846,0.51791 2.61783,0.56204 5.00559,1.72864 6.11289,2.9866 0.54793,0.62248 0.75295,0.97694 1.21787,2.10561 0.18336,0.44516 0.27773,0.52869 0.51292,0.45405 0.38816,-0.1232 0.39056,0.29093 0.003,0.49841 -0.21044,0.11262 -0.28533,0.29871 -0.28533,0.70902 0,2.5201 -1.98022,6.39985 -4.63372,9.07861 -3.09663,3.12613 -7.1467,4.8167 -10.37076,4.32895 z m 3.73396,-0.94307 c 1.2171,-0.40107 2.50367,-1.07736 3.85195,-2.0248 3.11117,-2.18622 6.17065,-6.9847 6.30647,-9.89104 l 0.0421,-0.90101 -0.55112,0.0438 c -0.87301,0.0695 -3.69269,0.84304 -5.64654,1.54911 -2.00661,0.72514 -4.31194,1.8397 -5.88129,2.84342 -1.40059,0.89579 -3.07909,2.61068 -3.61632,3.69471 -0.92159,1.85964 -0.54221,3.95949 0.83591,4.62663 1.35423,0.65557 2.79341,0.67384 4.65884,0.0591 z m 19.96963,-10.25302 c -0.13096,-0.15778 -0.15744,-0.55243 -0.0958,-1.42664 l 0.0853,-1.20852 h -0.44077 c -0.3179,0 -0.61808,0.16345 -1.07685,0.58632 -0.73729,0.67962 -2.55461,1.56602 -3.40917,1.66284 -0.80996,0.0917 -1.52606,-0.17637 -2.04276,-0.76485 -0.98776,-1.125 -0.27802,-2.94492 1.35919,-3.48525 0.5517,-0.18208 1.55809,-0.0907 1.87222,0.17002 0.2908,0.24134 0.21792,0.66172 -0.15733,0.90759 -0.1885,0.12352 -0.78234,0.29271 -1.31965,0.37599 -0.5373,0.0833 -1.02407,0.22444 -1.08172,0.31371 -0.24125,0.37356 -0.10075,0.97734 0.32695,1.40504 0.40802,0.40802 0.48656,0.43093 1.21794,0.35545 0.92737,-0.0957 3.44904,-1.36684 3.35355,-1.69047 -0.28533,-0.96705 -0.007,-1.69103 0.64929,-1.69103 0.36378,0 0.36972,0.0154 0.27679,0.71585 l -0.095,0.71585 0.54714,-0.0875 c 0.79732,-0.1275 0.94871,0.12064 0.8575,1.40554 -0.0797,1.12244 -0.0357,1.38753 0.23041,1.38753 0.22425,0 0.95388,-0.78073 1.34901,-1.44349 0.2975,-0.49899 0.30784,-0.66515 0.31097,-4.99326 0.005,-6.87152 0.26941,-9.20878 1.13579,-10.03883 0.31366,-0.3005 0.50737,-0.36888 0.94292,-0.33286 1.09467,0.0905 1.50502,1.42267 1.21076,3.93048 -0.23078,1.96674 -0.78327,4.35999 -1.51947,6.58193 -0.34756,1.04895 -0.63192,1.93334 -0.63192,1.9653 0,0.032 0.18941,-0.0398 0.42091,-0.15955 0.97631,-0.50487 2.39107,-0.0294 2.77615,0.93303 0.12479,0.31188 0.22689,0.68346 0.22689,0.82573 0,0.14226 0.0397,0.29833 0.0881,0.3468 0.16474,0.16474 1.46782,-0.43492 2.07561,-0.95516 0.79302,-0.6788 1.52428,-0.9001 2.29471,-0.69446 0.4663,0.12446 0.62209,0.11549 0.78268,-0.0451 0.25504,-0.25504 0.52761,-0.2554 0.73876,-10e-4 0.12004,0.14464 0.12759,0.43539 0.0275,1.05714 -0.1512,0.93883 -0.0896,1.39311 0.24078,1.77497 0.3415,0.39475 0.70883,0.2971 1.4239,-0.37852 l 0.66485,-0.62818 0.0572,-1.95651 c 0.0649,-2.2216 0.0737,-2.20273 -1.02306,-2.2062 -1.01049,-0.003 -0.79711,-0.33986 0.27266,-0.43018 l 0.84488,-0.0713 0.0937,-1.04955 c 0.0986,-1.10419 0.24124,-1.39803 0.61004,-1.2565 0.17103,0.0656 0.22359,0.3021 0.22359,1.00592 0,1.45204 -0.13452,1.37146 2.28948,1.37146 1.16395,0 2.15145,0.0569 2.19443,0.12645 0.12863,0.20812 -0.47285,0.29674 -2.12995,0.31382 -2.47286,0.0255 -2.2602,-0.19838 -2.40917,2.53598 -0.14509,2.66323 -0.0318,3.3806 0.55756,3.5285 0.44577,0.11188 1.33118,-0.39645 2.41351,-1.38564 0.44182,-0.40379 0.8383,-0.69918 0.88107,-0.65641 0.11536,0.11536 -1.93651,2.23222 -2.39201,2.46777 -0.61039,0.31565 -1.44526,0.26051 -1.79022,-0.11823 -0.39855,-0.43757 -0.61336,-0.88126 -0.61336,-1.26692 0,-0.31132 -0.0163,-0.30723 -0.46366,0.11616 -0.63289,0.59905 -0.98516,0.75843 -1.67631,0.75843 -0.78799,0 -1.08554,-0.18339 -1.28676,-0.79307 l -0.16829,-0.50994 -0.44946,0.64751 c -0.58904,0.8486 -1.15279,1.15111 -1.94676,1.04462 -0.85472,-0.11465 -1.07066,-0.38118 -1.07066,-1.32153 v -0.77491 c 0,0.003 -0.33908,0.12179 -0.75351,0.26494 -0.51447,0.17771 -0.90867,0.44155 -1.24259,0.83165 -0.63202,0.73837 -1.17112,0.95976 -2.03654,0.83631 -0.37141,-0.053 -0.88613,-0.0911 -1.14382,-0.0848 -0.39422,0.01 -0.49818,-0.059 -0.65547,-0.43309 l -0.18693,-0.44458 -0.18461,0.44568 c -0.27928,0.67426 -1.1047,1.28988 -1.72945,1.28988 -0.29317,0 -0.59979,-0.0953 -0.70172,-0.21813 z m 5.71001,-1.7115 c 0,-0.11568 -0.0555,-0.21034 -0.12342,-0.21034 -0.22742,0 -0.87894,0.59191 -0.79716,0.72423 0.11597,0.18764 0.92058,-0.26151 0.92058,-0.51389 z m 5.16965,0.1561 c 0.55839,-0.57496 1.29917,-1.9439 1.13873,-2.10435 -0.0613,-0.0613 -0.30633,-0.15037 -0.54461,-0.19802 -0.80309,-0.16062 -1.76916,1.0099 -1.76916,2.14358 0,0.82219 0.46918,0.88559 1.17504,0.15879 z m -5.63331,-0.85982 c 0.84574,-0.25298 0.89166,-0.2896 0.89166,-0.71091 0,-0.76776 -0.70787,-1.47519 -1.29094,-1.29013 -0.37816,0.12002 -0.66949,0.72122 -0.79011,1.63049 -0.0803,0.60553 -0.0612,0.73914 0.0991,0.69364 0.10924,-0.031 0.59986,-0.17639 1.09027,-0.32309 z m -10.15091,-1.36656 c 0.28458,-0.10819 0.34672,-0.19042 0.23122,-0.30592 -0.1155,-0.11551 -0.27595,-0.10909 -0.59695,0.0239 -0.85831,0.35552 -0.51794,0.61802 0.36573,0.28205 z m 9.76139,-7.35851 c 0.44331,-2.6251 0.37228,-5.47601 -0.13644,-5.47601 -0.1602,0 -0.40097,0.81398 -0.58687,1.98408 -0.1583,0.99639 -0.42425,5.8309 -0.40491,7.36046 l 0.0144,1.14131 0.40814,-1.62408 c 0.22448,-0.89324 0.54201,-2.41683 0.70564,-3.38576 z"
       style="fill:#000000;stroke-width:0.539205"
       id="path118" /></g></svg>
