<?xml version="1.0" encoding="UTF-8" standalone="no"?>
<!-- Created with Inkscape (http://www.inkscape.org/) -->

<svg
   width="135.46669mm"
   height="105.11164mm"
   viewBox="0 0 135.46669 105.11164"
   version="1.1"
   id="svg1"
   xml:space="preserve"
   xmlns="http://www.w3.org/2000/svg"
   xmlns:svg="http://www.w3.org/2000/svg"><defs
     id="defs1" /><g
     id="layer1"
     transform="translate(-37.20372,-26.158684)"><path
       style="fill:#6C5241"
       d="m 110.15005,130.9514 c -3.37868,-1.21347 -5.47539,-4.37504 -5.13101,-7.73692 0.2783,-2.71679 1.88585,-4.99955 4.3895,-6.2332 l 1.21705,-0.59968 h 28.17812 c 28.13461,0 28.17996,8.6e-4 29.36875,0.55944 2.79725,1.31435 4.35507,3.81213 4.35402,6.98118 -9.9e-4,2.96405 -1.23497,5.03535 -3.86911,6.49448 l -1.41095,0.78157 -28.04583,0.057 c -23.12617,0.047 -28.22208,-0.006 -29.05054,-0.30386 z M 41.491948,85.403146 c -2.53912,-1.26529 -4.28823,-4.0082 -4.28823,-6.724675 0,-2.730253 1.85424,-5.617678 4.35554,-6.782437 l 1.333,-0.620726 62.058982,-0.0026 62.05899,-0.0026 1.37192,0.683656 c 2.53911,1.265294 4.28823,4.008206 4.28823,6.724677 0,2.716475 -1.74912,5.459385 -4.28823,6.724675 l -1.37192,0.68366 H 104.93705 42.863868 Z m 1.40031,-44.592429 c -1.3322,-0.310376 -3.21745,-1.586245 -4.17515,-2.825594 -1.68548,-2.181132 -1.91502,-5.50369 -0.55312,-8.005966 0.80557,-1.480088 1.70871,-2.346636 3.37454,-3.237809 l 1.08915,-0.582666 h 62.309372 62.30937 l 1.08915,0.582666 c 1.67366,0.895364 2.56723,1.756847 3.42091,3.298052 0.67306,1.215136 0.78077,1.686341 0.77609,3.395323 -0.009,3.176723 -1.48146,5.535541 -4.33369,6.940941 l -1.21705,0.599684 -61.51562,0.04097 c -37.238492,0.0248 -61.933292,-0.05634 -62.573952,-0.205601 z"
       id="path1" /></g></svg>
