<svg width="43" height="43" viewBox="0 0 43 43" fill="none" xmlns="http://www.w3.org/2000/svg">
<path d="M21.4999 0.800049C10.0861 0.800049 0.799938 10.0862 0.799938 21.5C0.799938 25.064 1.72064 28.5687 3.46664 31.6611L0.833238 41.0571C0.746838 41.3658 0.830538 41.6969 1.05374 41.9264C1.22564 42.1037 1.45964 42.2001 1.69994 42.2001C1.77194 42.2001 1.84484 42.1911 1.91594 42.174L11.7223 39.7448C14.7166 41.3522 18.0889 42.2001 21.4999 42.2001C32.9137 42.2001 42.1999 32.9139 42.1999 21.5C42.1999 10.0862 32.9137 0.800049 21.4999 0.800049ZM31.9129 28.8045C31.4701 30.0303 29.3461 31.149 28.3255 31.2993C27.4093 31.4334 26.2501 31.491 24.9775 31.0914C24.2062 30.8484 23.2162 30.5262 21.9481 29.9853C16.6174 27.7119 13.1362 22.4118 12.8698 22.0617C12.6043 21.7116 10.6999 19.2167 10.6999 16.6346C10.6999 14.0525 12.0724 12.7826 12.5602 12.257C13.048 11.7314 13.6231 11.6 13.9777 11.6C14.3323 11.6 14.686 11.6045 14.9965 11.6189C15.3232 11.6351 15.7615 11.4956 16.1926 12.5198C16.6354 13.571 17.6983 16.1531 17.8297 16.4168C17.9629 16.6796 18.0511 16.9865 17.8747 17.3366C17.6983 17.6867 17.6101 17.9054 17.3437 18.2123C17.0773 18.5192 16.7857 18.8963 16.5463 19.1321C16.2799 19.394 16.0036 19.6775 16.3132 20.2031C16.6228 20.7287 17.6893 22.4468 19.2697 23.8382C21.2992 25.6256 23.0119 26.1801 23.5429 26.4429C24.0739 26.7057 24.3844 26.6616 24.694 26.3115C25.0036 25.9605 26.0224 24.7787 26.3761 24.254C26.7298 23.7293 27.0844 23.8157 27.5722 23.9912C28.06 24.1658 30.6727 25.4348 31.2037 25.6976C31.7347 25.9604 32.0893 26.0918 32.2225 26.3105C32.3557 26.5283 32.3557 27.5796 31.9129 28.8045Z" fill="white"/>
</svg>
